<?xml version="1.0" encoding="UTF-8"?>
<svg width="32px" height="32px" viewBox="0 0 32 32" version="1.1" xmlns="http://www.w3.org/2000/svg" xmlns:xlink="http://www.w3.org/1999/xlink">
    <title>icon_shangpingzhongshu</title>
    <g id="门店管理系统" stroke="none" stroke-width="1" fill="none" fill-rule="evenodd">
        <g id="商品管理-普通商品管理" transform="translate(-728.000000, -154.000000)">
            <g id="group" transform="translate(252.000000, 98.000000)">
                <g id="商品种数" transform="translate(360.000000, 0.000000)">
                    <g id="icon_shangpingzhongshu" transform="translate(116.000000, 56.000000)">
                        <rect id="矩形" fill-opacity="0.202394285" fill="#01489C" x="0" y="0" width="32" height="32" rx="8"></rect>
                        <g id="商品" transform="translate(4.000000, 4.000000)" fill-rule="nonzero">
                            <rect id="矩形" fill="#000000" opacity="0" x="0" y="0" width="24" height="24"></rect>
                            <path d="M16.9397348,14.9998805 L15.0120383,14.9998805 C14.4597514,14.9998805 14.0120383,15.4475912 14.0120383,15.9998702 C14.0120383,16.5521492 14.4597514,16.9998598 15.0120383,16.9998598 L16.9397348,16.9998598 C17.4920168,16.9998598 17.9397299,16.5521492 17.9397299,15.9998702 C17.9397299,15.4475912 17.4920168,14.9998805 16.9397348,14.9998805 L16.9397348,14.9998805 Z M16.9397348,9.99993244 L15.0120334,9.99993244 C14.7478398,9.99260556 14.4927731,10.0968667 14.3093588,10.287158 C14.1259445,10.4774493 14.0311391,10.7361784 14.0481827,10.9999221 L14.0481827,12.9999013 C14.0311391,13.263645 14.1259445,13.5223741 14.3093588,13.7126654 C14.4927731,13.9029566 14.7478398,14.0072178 15.0120334,13.9998909 L16.9397348,13.9998909 C17.5142452,14.0203054 17.9979985,13.5741798 18.0240668,12.9999013 L18.0240668,10.9999221 C18.0147047,10.7228887 17.8947289,10.4611576 17.6909597,10.2732381 C17.4871905,10.0853187 17.2166204,9.98688167 16.9397348,9.99993244 L16.9397348,9.99993244 Z M21.1565816,5.28913796 L18.7469548,2.87952441 C18.1669555,2.31394818 17.3883994,1.99820215 16.5782908,2.0000077 L7.42170921,2.0000077 C6.61160062,1.99820215 5.8330445,2.31394818 5.25304515,2.87952441 L2.84341842,5.28913796 C2.32274878,5.87544622 2.02429183,6.62584818 2.00002435,7.40959788 L2.00002435,18.999839 C1.99680233,19.7985638 2.31348704,20.5653379 2.87940919,21.1289933 C3.44533135,21.6926487 4.21337279,22.0062559 5.01208248,21.9999054 L18.9879175,21.9999054 C19.7866272,22.0062559 20.5546687,21.6926487 21.1205908,21.1289933 C21.686513,20.5653379 22.0031977,19.7985638 21.9999757,18.999839 L21.9999757,7.40959788 C21.9746963,6.62605863 21.6763712,5.87598821 21.1565816,5.28913796 Z M6.69882119,4.28914834 C6.90114211,4.11541739 7.15538586,4.01372044 7.42170921,3.99999471 L16.5782908,3.99999471 C16.8446141,4.01372044 17.0988579,4.11541739 17.3011788,4.28914834 L18.9879175,5.99997395 L5.01208248,5.99997395 L6.69882119,4.28914834 Z M19.9517682,18.999839 C19.9688118,19.2635827 19.8740064,19.5223118 19.6905922,19.7126031 C19.5071779,19.9028944 19.2521112,20.0071555 18.9879175,19.9998287 L5.01208248,19.9998287 C4.74788883,20.0071555 4.49282213,19.9028944 4.30940784,19.7126031 C4.12599355,19.5223118 4.03118821,19.2635827 4.04823179,18.999839 L4.04823179,8.99994282 C4.03814607,8.74026533 4.13604274,8.48800415 4.31865701,8.30310821 C4.50127129,8.11821227 4.75229833,8.01719013 5.01208248,8.02404933 L18.9879175,8.02404933 C19.2521112,8.01672246 19.5071779,8.12098362 19.6905922,8.31127491 C19.8740064,8.50156619 19.9688118,8.76029528 19.9517682,9.02403895 L19.9517682,18.999839 Z" id="形状" fill="#01489C"></path>
                        </g>
                    </g>
                </g>
            </g>
        </g>
    </g>
</svg>