<?xml version="1.0" encoding="UTF-8"?>
<svg width="32px" height="32px" viewBox="0 0 32 32" version="1.1" xmlns="http://www.w3.org/2000/svg" xmlns:xlink="http://www.w3.org/1999/xlink">
    <title>icon_gongdan</title>
    <g id="门店管理系统" stroke="none" stroke-width="1" fill="none" fill-rule="evenodd">
        <g id="工单管理" transform="translate(-600.000000, -154.000000)">
            <g id="group" transform="translate(252.000000, 98.000000)">
                <g id="当月工单" transform="translate(240.000000, 0.000000)">
                    <g id="icon_gongdan" transform="translate(108.000000, 56.000000)">
                        <rect id="矩形" fill-opacity="0.202394285" fill="#01489C" x="0" y="0" width="32" height="32" rx="8"></rect>
                        <g id="工单" transform="translate(4.000000, 4.000000)" fill-rule="nonzero">
                            <rect id="矩形" fill="#000000" opacity="0" x="0" y="0" width="24" height="24"></rect>
                            <path d="M15.2894152,13.2375352 L7.71058475,13.2375352 C7.31754256,13.2375352 7,12.9084633 7,12.5011506 C7,12.0938379 7.31754256,11.764766 7.71058475,11.764766 L15.2894152,11.764766 C15.6824574,11.764766 16,12.0938379 16,12.5011506 C16,12.9061621 15.6824574,13.2375352 15.2894152,13.2375352 Z M11.6898594,17 L7.9015544,17 C7.50851221,17 7.19096965,16.6709282 7.19096965,16.2636154 C7.19096965,15.8563027 7.50851221,15.5272309 7.9015544,15.5272309 L11.6920799,15.5272309 C12.0851221,15.5272309 12.4026647,15.8563027 12.4026647,16.2636154 C12.4026647,16.6709282 12.0829016,17 11.6898594,17 L11.6898594,17 Z M15.2894152,9.47276911 L7.71058475,9.47276911 C7.31754256,9.47276911 7,9.14369726 7,8.73638456 C7,8.32907185 7.31754256,8 7.71058475,8 L15.2894152,8 C15.6824574,8 16,8.32907185 16,8.73638456 C16,9.14369726 15.6824574,9.47276911 15.2894152,9.47276911 Z" id="形状" fill-opacity="0.696410279" fill="#01489C"></path>
                            <path d="M19.0016112,2 L5.00073239,2 C4.44763439,2 4,2.44762128 4,3.00070307 L4,20.9992969 C4,21.5523787 4.44763439,22 5.00073239,22 L18.9992676,22 C19.5523656,22 20,21.5523787 20,20.9992969 L20,3.00070307 C20,2.44762128 19.5523656,2 19.0016112,2 L19.0016112,2 Z M14.501831,3.49988282 L14.501831,5.20365596 L9.50051267,5.20365596 L9.50051267,3.49988282 L14.501831,3.49988282 Z M18.5000732,20.5001172 L5.5022704,20.5001172 L5.5022704,3.49988282 L8.00292954,3.49988282 L8.00292954,5.70283572 C8.00292954,6.25591751 8.45056394,6.70353879 9.00366193,6.70353879 L15.003369,6.70353879 C15.556467,6.70353879 16.0041014,6.25591751 16.0041014,5.70283572 L16.0041014,3.49988282 L18.5047605,3.49988282 L18.5047605,20.5001172 L18.5000732,20.5001172 Z" id="形状" fill="#01489C"></path>
                        </g>
                    </g>
                </g>
            </g>
        </g>
    </g>
</svg>