<?xml version="1.0" encoding="UTF-8"?>
<svg width="40px" height="40px" viewBox="0 0 40 40" version="1.1" xmlns="http://www.w3.org/2000/svg" xmlns:xlink="http://www.w3.org/1999/xlink">
    <title>icon_addsanbao</title>
    <g id="门店管理系统" stroke="none" stroke-width="1" fill="none" fill-rule="evenodd">
        <g id="供应管理-平台供应商" transform="translate(-448.000000, -106.000000)">
            <g id="group" transform="translate(252.000000, 98.000000)">
                <g id="新增三包厂" transform="translate(180.000000, 0.000000)">
                    <g id="icon_addsanbao" transform="translate(16.000000, 8.000000)">
                        <rect id="bg" fill="#4988FD" x="0" y="0" width="40" height="40" rx="2"></rect>
                        <g id="Icon-zu-copy" transform="translate(4.000000, 4.000000)" fill="#FFFFFF" fill-rule="nonzero">
                            <g id="编组">
                                <rect id="矩形" opacity="0" x="0" y="0" width="32" height="32"></rect>
                                <path d="M28.7459814,19.7526745 C28.1273494,19.2456244 27.3368017,18.997068 26.539315,19.0588754 L24.8048173,19.0588754 L24.8048173,15.904017 C24.7880801,15.4466882 24.404588,15.0890495 23.9472046,15.1042209 L16.525482,15.1042209 L16.525482,12.6605064 L18.2599796,12.6605064 C19.0581372,12.7230235 19.8495436,12.4744141 20.4685733,11.9667073 C20.9963097,11.4164481 21.2629282,10.666408 21.2009167,9.90650959 L21.2009167,5.12315057 C21.2619087,4.36267321 20.9938575,3.6125509 20.4647188,3.06295283 C19.8456891,2.55524606 19.0542827,2.30663671 18.2561252,2.36915377 L13.1316483,2.36915377 C12.3341385,2.30714418 11.543517,2.55572385 10.9249818,3.06295283 C10.3933051,3.61128651 10.1230313,4.36173514 10.1830023,5.12315057 L10.1830023,9.90650959 C10.1230313,10.667925 10.3933051,11.4183736 10.9249818,11.9667073 C11.5440115,12.4744141 12.3354179,12.7230234 13.1335755,12.6605064 L14.8121837,12.6605064 L14.8121837,15.1061481 L7.98982639,15.1061481 C7.53244295,15.0909767 7.14895088,15.4486154 7.13221366,15.9059442 L7.13221366,19.0588754 L5.45553261,19.0588754 C4.65799977,18.9966635 3.8673045,19.2452663 3.2488662,19.7526745 C2.71762272,20.3012784 2.44742169,21.0515249 2.50688664,21.8128722 L2.50688664,26.5981585 C2.4472285,27.3589565 2.71749713,28.1086886 3.2488662,28.656429 C3.8673045,29.1638372 4.65799978,29.41244 5.45553261,29.3502281 L10.5819367,29.3502281 C11.3794235,29.4120356 12.1699712,29.1634791 12.7886032,28.656429 C13.3202799,28.1080953 13.5905537,27.3576467 13.5305827,26.5962313 L13.5305827,21.8128722 C13.5897953,21.0515589 13.3196305,20.3014131 12.7886032,19.7526745 C12.1699712,19.2456244 11.3794235,18.997068 10.5819367,19.0588754 L8.8474391,19.0588754 L8.8474391,16.7057403 L23.0895919,16.7057403 L23.0895919,19.0588754 L21.4129108,19.0588754 C20.6147993,18.996763 19.8235405,19.245326 19.2043172,19.7526745 C18.6742073,20.3018787 18.4047952,21.0518827 18.4642649,21.8128722 L18.4642649,26.5981585 C18.4042939,27.3595739 18.6745677,28.1100225 19.2062444,28.6583562 C19.8251636,29.164716 20.6156817,29.4125728 21.4129108,29.3502281 L26.539315,29.3502281 C27.3368017,29.4120356 28.1273494,29.1634791 28.7459814,28.656429 C29.2778753,28.1082308 29.5481856,27.3576808 29.4879609,26.5962313 L29.4879609,21.8128722 C29.5474259,21.0515249 29.2772249,20.3012784 28.7459814,19.7526745 L28.7459814,19.7526745 Z" id="路径"></path>
                            </g>
                        </g>
                    </g>
                </g>
            </g>
        </g>
    </g>
</svg>