<?xml version="1.0" encoding="UTF-8"?>
<svg width="32px" height="32px" viewBox="0 0 32 32" version="1.1" xmlns="http://www.w3.org/2000/svg" xmlns:xlink="http://www.w3.org/1999/xlink">
    <title>icon_yiquxiao</title>
    <g id="门店管理系统" stroke="none" stroke-width="1" fill="none" fill-rule="evenodd">
        <g id="工单管理" transform="translate(-1388.000000, -154.000000)">
            <g id="group" transform="translate(252.000000, 98.000000)">
                <g id="已取消" transform="translate(1060.000000, 0.000000)">
                    <g id="icon_yiquxiao" transform="translate(76.000000, 56.000000)">
                        <rect id="矩形" fill-opacity="0.209749235" fill="#FA8465" x="0" y="0" width="32" height="32" rx="8"></rect>
                        <g id="取消订单小" transform="translate(6.000000, 6.000000)" fill-rule="nonzero">
                            <rect id="矩形" fill="#000000" opacity="0" x="0" y="0" width="20" height="20"></rect>
                            <g id="编组" transform="translate(1.000000, 0.000000)">
                                <path d="M12.2727273,1.77635684e-15 C13.176466,1.77635684e-15 13.9090909,0.746192081 13.9090909,1.66666666 L16.3636364,1.66666666 C16.797627,1.66666666 17.2138425,1.8422614 17.5207202,2.15482203 C17.8275979,2.46738266 18,2.89130586 18,3.33333334 L18,18.3333333 C18,18.7753608 17.8275979,19.199284 17.5207202,19.5118446 C17.2138425,19.8244053 16.797627,20 16.3636364,20 L1.63636363,20 C0.732624952,20 0,19.2538079 0,18.3333333 L0,3.33333334 C0,2.89130586 0.172402095,2.46738266 0.479279804,2.15482203 C0.786157514,1.8422614 1.20237301,1.66666666 1.63636363,1.66666666 L4.09090909,1.66666666 C4.09090909,0.746192081 4.82353404,1.77635684e-15 5.72727272,1.77635684e-15 L12.2727273,1.77635684e-15 Z M4.09090909,3.33333334 L1.63636363,3.33333334 L1.63636363,18.3333333 L16.3636364,18.3333333 L16.3636364,3.33333334 L13.9090909,3.33333334 C13.9090909,4.25380792 13.176466,5 12.2727273,5 L5.72727272,5 C4.82353404,5 4.09090909,4.25380792 4.09090909,3.33333334 Z" id="形状结合" fill="#FA8465"></path>
                                <path d="M9,10.4883333 L11.3138182,8.13083334 C11.5206262,7.9201955 11.8220555,7.83793206 12.1045606,7.91503085 C12.3870657,7.99212965 12.6077272,8.21687755 12.6834243,8.50461419 C12.7591213,8.79235082 12.6783535,9.09936216 12.4715455,9.31 L10.1569091,11.6666667 L12.4715455,14.0233333 C12.791243,14.3489512 12.791243,14.8768821 12.4715454,15.2025 C12.1518479,15.5281179 11.6335157,15.5281179 11.3138182,15.2025 L9,12.845 L6.68618182,15.2025 C6.47937377,15.4131378 6.17794445,15.4954013 5.89543939,15.4183025 C5.61293433,15.3412037 5.39227275,15.1164558 5.31657575,14.8287192 C5.24087874,14.5409825 5.32164648,14.2339712 5.52845454,14.0233333 L7.8430909,11.6666667 L5.52845454,9.31 C5.32164648,9.09936216 5.24087874,8.79235082 5.31657575,8.50461419 C5.39227275,8.21687755 5.61293433,7.99212965 5.89543939,7.91503085 C6.17794445,7.83793206 6.47937377,7.9201955 6.68618182,8.13083334 L9,10.4883333 Z" id="路径" fill-opacity="0.50094071" fill="#FA8465"></path>
                                <polygon id="路径" fill="#F5FCFF" points="5.72727272 1.66666666 5.72727272 3.33333334 12.2727273 3.33333334 12.2727273 1.66666666"></polygon>
                            </g>
                        </g>
                    </g>
                </g>
            </g>
        </g>
    </g>
</svg>