<?xml version="1.0" encoding="UTF-8"?>
<svg width="40px" height="40px" viewBox="0 0 40 40" version="1.1" xmlns="http://www.w3.org/2000/svg" xmlns:xlink="http://www.w3.org/1999/xlink">
    <title>icon_guanli</title>
    <g id="门店管理系统" stroke="none" stroke-width="1" fill="none" fill-rule="evenodd">
        <g id="工单管理" transform="translate(-388.000000, -106.000000)">
            <g id="group" transform="translate(252.000000, 98.000000)">
                <g id="服务管理" transform="translate(120.000000, 0.000000)">
                    <g id="icon_guanli" transform="translate(16.000000, 8.000000)">
                        <rect id="bg" fill="#4988FD" x="0" y="0" width="40" height="40" rx="2"></rect>
                        <g id="Icon-weixiu" transform="translate(4.000000, 4.000000)" fill="#FFFFFF" fill-rule="nonzero">
                            <g id="编组">
                                <rect id="矩形" opacity="0" x="0" y="0" width="32" height="32"></rect>
                                <path d="M25.2207187,13.136 C25.2207187,13.136 27.2828125,14.0462187 27.1385625,18.74725 L28.6255312,20.2319375 C28.6255312,20.2319375 30.20825,16.5891875 29.6325937,13.46975 C29.6325937,13.46975 29.5851875,10.5436875 24.3568437,6.660125 C24.3568437,6.660125 21.76675,6.946375 21.9591562,4.26125 L19.8965312,2.19790625 L16.1551562,5.93953125 L17.9774062,7.76378125 C17.9774062,7.76378125 22.4858437,7.95325 20.9036562,11.647375 L14.141375,18.459 L12.8460625,18.2674063 L5.12425,25.9891875 C5.12425,25.9891875 4.596125,27.8591875 5.9396875,29.0102187 C5.9396875,29.0102187 6.8023125,30.0664687 8.625875,30.0170938 L16.2035625,22.151 L16.3477813,20.856 L24.0686563,13.1832188 C24.068625,13.1834375 24.5010313,12.5120625 25.2206875,13.136 L25.2207187,13.136 Z M10.5911562,13.9968125 L13.0377812,16.4450313 L16.3477812,13.1359688 L13.8045625,10.5928438 C16.491,4.452625 8.76915625,2.0556875 8.76915625,2.0556875 C7.33046875,1.670625 7.61778125,2.774375 7.61778125,2.774375 C10.6400625,5.268125 10.1597187,6.08340625 10.1597187,6.08340625 C9.77696875,8.9620625 7.28221875,10.06575 7.28221875,10.06575 C4.78871875,11.120125 2.72609375,7.6194375 2.72609375,7.6194375 C1.91115625,7.47534375 2.006875,8.3875 2.006875,8.3875 C4.021375,17.2603125 10.5911875,13.996875 10.5911875,13.996875 L10.5911562,13.9968125 Z M18.3140625,22.0070625 L25.9390625,30.1139375 L29.6809687,26.3725 L21.6709687,18.6504063 L18.3140625,22.0070625 Z M25.9390625,24.597375 L27.4905625,25.723625 L26.898,27.548125 L24.9809375,27.548125 L24.388875,25.723625 L25.9390937,24.597375 L25.9390625,24.597375 Z" id="形状"></path>
                            </g>
                        </g>
                    </g>
                </g>
            </g>
        </g>
    </g>
</svg>