<?xml version="1.0" encoding="UTF-8"?>
<svg width="56px" height="56px" viewBox="0 0 56 56" version="1.1" xmlns="http://www.w3.org/2000/svg" xmlns:xlink="http://www.w3.org/1999/xlink">
    <title>icon_shoukuan</title>
    <g id="门店管理系统" stroke="none" stroke-width="1" fill="none" fill-rule="evenodd">
        <g id="首页" transform="translate(-1112.000000, -146.000000)" fill-rule="nonzero">
            <g id="工具栏" transform="translate(252.000000, 98.000000)">
                <g id="icon_收款" transform="translate(840.000000, 44.000000)">
                    <g id="icon_shoukuan" transform="translate(20.000000, 4.000000)">
                        <rect id="矩形" fill="#000000" opacity="0" x="0" y="0" width="56" height="56"></rect>
                        <path d="M49.9419608,32.6526215 C45.6971284,29.1916748 39.5828923,29.267888 35.425646,32.8335657 C31.2683997,36.3992434 30.2618502,42.4305409 33.0359134,47.152969 L32.3291737,47.7622273 C29.8063244,49.751751 26.2503573,49.7589406 23.7194836,47.7796347 L4.32418086,31.1625498 C3.83988225,30.632964 3.59079796,29.9297645 3.63376595,29.2134126 C3.67673394,28.4970608 4.00808811,27.8286769 4.55221754,27.360778 C5.04788752,26.9316055 5.67914848,26.6911839 6.33473325,26.6818902 L12.0513168,26.6818902 L12.0513168,8.34147468 C12.0513168,5.84525639 13.9696101,4.00181485 16.514569,4.00181485 L39.5062365,4.00181485 C41.8997512,3.93392607 43.8963777,5.77910835 43.9642665,8.12214169 C43.967748,8.19525268 43.967748,8.26836368 43.9642665,8.34147468 L43.9642665,26.6818902 L49.7487389,26.6818902 L49.7487389,26.6905939 C51.2701439,26.7654456 52.4434013,28.0344436 52.3668088,29.5262561 C52.3360053,30.111783 52.1133395,30.6708944 51.7331802,31.1172906 L49.94022,32.6543623 L49.9419608,32.6526215 Z" id="路径" fill="#01489C"></path>
                        <path d="M42.5,51 C37.2532949,51 33,46.7467051 33,41.5 C33,36.2532949 37.2532949,32 42.5,32 C47.7467052,32 52,36.253295 52,41.5 C52,46.746705 47.7467052,51 42.5,51 L42.5,51 Z M41.6,40.6 L38.9,40.6 C38.4029437,40.6 38,41.0029437 38,41.5 C38,41.9970563 38.4029437,42.4 38.9,42.4 L41.6,42.4 L41.6,45.1 C41.6,45.5970563 42.0029437,46 42.5,46 C42.9970563,46 43.4,45.5970563 43.4,45.1 L43.4,42.4 L46.1,42.4 C46.5970563,42.4 47,41.9970563 47,41.5 C47,41.0029437 46.5970563,40.6 46.1,40.6 L43.4,40.6 L43.4,37.9 C43.4,37.4029437 42.9970563,37 42.5,37 C42.0029437,37 41.6,37.4029437 41.6,37.9 L41.6,40.6 Z" id="形状" fill="#01489C"></path>
                        <path d="M25.8125438,21.3732928 L20.7188157,21.3732928 C19.7810863,21.3732928 19.0209063,20.6008311 19.0209063,19.6479513 C19.0209063,18.6950716 19.7810863,17.9226099 20.7188157,17.9226099 L23.4117,17.9226099 L19.5183938,13.966402 C19.0770111,13.5332128 18.8999938,12.8917249 19.0553787,12.2884948 C19.2107637,11.6852646 19.6743693,11.2141688 20.2680083,11.0562735 C20.8616474,10.8983781 21.4929359,11.0782553 21.9192376,11.5267692 L27.5104532,17.2083185 L33.1016687,11.5267692 C33.7678925,10.8729127 34.8268886,10.8822638 35.4818296,11.5477863 C36.1367706,12.2133088 36.145973,13.2894144 35.5025126,13.966402 L31.6092064,17.9226099 L34.3020906,17.9226099 C35.2398201,17.9226099 36,18.6950716 36,19.6479513 C36,20.6008311 35.2398201,21.3732928 34.3020906,21.3732928 L29.2083625,21.3732928 L29.2083625,23.0986342 L32.6041813,23.0986342 C33.5419107,23.0986342 34.3020906,23.8710959 34.3020906,24.8239757 C34.3020906,25.7768554 33.5419107,26.5493171 32.6041813,26.5493171 L29.2083625,26.5493171 L29.2083625,28.2746586 C29.2083625,29.2275383 28.4481826,30 27.5104532,30 C26.5727237,30 25.8125438,29.2275383 25.8125438,28.2746586 L25.8125438,26.5493171 L22.4167251,26.5493171 C21.4789956,26.5493171 20.7188157,25.7768554 20.7188157,24.8239757 C20.7188157,23.8710959 21.4789956,23.0986342 22.4167251,23.0986342 L25.8125438,23.0986342 L25.8125438,21.3732928 Z M28,21 L28,23 L28,21 Z M28,27 L28,29 L28,27 Z" id="形状" fill="#FFFFFF"></path>
                    </g>
                </g>
            </g>
        </g>
    </g>
</svg>