<?xml version="1.0" encoding="UTF-8"?>
<svg width="40px" height="40px" viewBox="0 0 40 40" version="1.1" xmlns="http://www.w3.org/2000/svg" xmlns:xlink="http://www.w3.org/1999/xlink">
    <title>icon_dangedaoru</title>
    <g id="门店管理系统" stroke="none" stroke-width="1" fill="none" fill-rule="evenodd">
        <g id="商品管理-普通商品管理" transform="translate(-268.000000, -106.000000)">
            <g id="group" transform="translate(252.000000, 98.000000)">
                <g id="icon_dangedaoru" transform="translate(16.000000, 8.000000)">
                    <rect id="bg" fill="#01489C" x="0" y="0" width="40" height="40" rx="2"></rect>
                    <g id="Icon-daoru" transform="translate(4.000000, 4.000000)" fill="#FFFFFF" fill-rule="nonzero">
                        <g id="编组">
                            <rect id="矩形" opacity="0" x="0" y="0" width="32" height="32"></rect>
                            <path d="M16.8,4 C17.6888958,4 18.1333438,4.44444792 18.1333438,5.33334375 L18.1333438,18.6666562 C18.1333438,19.5555521 17.6888958,20 16.8,20 C15.9111042,20 15.4666562,19.5555521 15.4666562,18.6666562 L15.4666562,5.33334375 C15.4666562,4.44444792 15.9111042,4 16.8,4 Z" id="路径"></path>
                            <path d="M26.1333438,10.6666563 L23.4666562,10.6666563 L23.4666562,13.3333438 L26.1333438,13.3333438 L26.1333438,24 L7.46665625,24 L7.46665625,13.3333438 L10.1333437,13.3333438 L10.1333437,10.6666563 L7.46665625,10.6666563 C6.75940963,10.6666563 6.08113044,10.947611 5.58103448,11.4477128 C5.08093853,11.9478146 4.8,12.6260971 4.8,13.3333438 L4.8,24 C4.8,25.4727536 5.99390267,26.6666563 7.46665625,26.6666563 L26.1333438,26.6666563 C27.6060973,26.6666563 28.8,25.4727536 28.8,24 L28.8,13.3333438 C28.8,12.6260971 28.5190615,11.9478146 28.0189655,11.4477128 C27.5188696,10.947611 26.8405904,10.6666563 26.1333438,10.6666563 L26.1333438,10.6666563 Z" id="路径"></path>
                            <path d="M17.5466562,21.92 L21.6533437,17.8133438 C21.9537794,17.5068618 22.0412697,17.0501692 21.8753762,16.6543509 C21.7094827,16.2585326 21.3225201,16.0006904 20.8933437,16 L12.7066562,16 C12.2871147,16.0211607 11.9190604,16.2865935 11.7665308,16.6779982 C11.6140012,17.0694029 11.7054032,17.5138848 12,17.8133438 L16,21.92 C16.199374,22.1355812 16.4796867,22.2581538 16.7733281,22.2581538 C17.0669695,22.2581538 17.3472822,22.1355812 17.5466562,21.92 Z" id="路径"></path>
                        </g>
                    </g>
                </g>
            </g>
        </g>
    </g>
</svg>