<?xml version="1.0" encoding="UTF-8"?>
<svg width="32px" height="32px" viewBox="0 0 32 32" version="1.1" xmlns="http://www.w3.org/2000/svg" xmlns:xlink="http://www.w3.org/1999/xlink">
    <title>icon_daichuli</title>
    <g id="门店管理系统" stroke="none" stroke-width="1" fill="none" fill-rule="evenodd">
        <g id="工单管理" transform="translate(-756.000000, -154.000000)">
            <g id="group" transform="translate(252.000000, 98.000000)">
                <g id="待处理" transform="translate(404.000000, 0.000000)">
                    <g id="icon_daichuli" transform="translate(100.000000, 56.000000)">
                        <rect id="矩形" fill-opacity="0.201544061" fill="#E23A3A" x="0" y="0" width="32" height="32" rx="8"></rect>
                        <g id="待处理任务" transform="translate(4.000000, 4.000000)" fill-rule="nonzero">
                            <rect id="矩形" fill="#000000" opacity="0" x="0" y="0" width="24" height="24"></rect>
                            <path d="M12,3.49988282 C16.6871338,3.49988282 20.5001172,7.31286618 20.5001172,12 C20.5001172,16.6871338 16.6871338,20.5001172 12,20.5001172 C7.31286618,20.5001172 3.49988282,16.6871338 3.49988282,12 C3.49988282,7.31286618 7.31286618,3.49988282 12,3.49988282 M12,2 C6.47855636,2 2,6.4762128 2,12 C2,17.5237872 6.4762128,22 12,22 C17.5214436,22 22,17.5237872 22,12 C22,6.4762128 17.5214436,2 12,2 Z" id="形状" fill="#E23A3A"></path>
                            <path d="M17.2410317,14 L10,14 L10,8.69239091 C10,8.30941219 10.3391639,8 10.7589683,8 C11.1787726,8 11.5179366,8.30941219 11.5179366,8.69239091 L11.5179366,12.6152182 L17.2410317,12.6152182 C17.6608361,12.6152182 18,12.9246304 18,13.3076091 C18,13.6905878 17.6608361,14 17.2410317,14 Z" id="路径" fill-opacity="0.704634233" fill="#E23A3A"></path>
                        </g>
                    </g>
                </g>
            </g>
        </g>
    </g>
</svg>