<?xml version="1.0" encoding="UTF-8"?>
<svg width="28px" height="32px" viewBox="0 0 28 32" version="1.1" xmlns="http://www.w3.org/2000/svg" xmlns:xlink="http://www.w3.org/1999/xlink">
    <title>Icon_tijiaodingdan</title>
    <g id="门店管理系统" stroke="none" stroke-width="1" fill="none" fill-rule="evenodd">
        <g id="采购管理-采购管理-采购详情" transform="translate(-717.000000, -138.000000)" fill-rule="nonzero">
            <g id="时间轴" transform="translate(252.000000, 98.000000)">
                <g id="提交订单" transform="translate(420.000000, 40.000000)">
                    <g id="编组" transform="translate(44.000000, 0.000000)">
                        <rect id="矩形" fill="#000000" opacity="0" x="0" y="0" width="32" height="32"></rect>
                        <path d="M9.2,10 L19.36,10 C19.84,10 20.24,9.6 20.24,9.12 L20.24,8.96 C20.24,8.48 19.84,8.08 19.36,8.08 L9.2,8.08 C8.72,8.08 8.32,8.48 8.32,8.96 L8.32,9.12 C8.24,9.6 8.72,10 9.2,10 Z M8.24,13.12 C8.24,13.6 8.64,14 9.12,14 L19.28,14 C19.76,14 20.16,13.6 20.16,13.12 L20.16,12.96 C20.16,12.48 19.76,12.08 19.28,12.08 L9.2,12.08 C8.72,12.08 8.32,12.48 8.32,12.96 L8.32,13.12 L8.24,13.12 Z" id="形状" fill="#999999"></path>
                        <path d="M25.36,0.16 L5.04,0.16 C3.2,0.16 1.68,1.68 1.68,3.52 L1.68,28.32 C1.68,30.16 3.2,31.68 5.04,31.68 L18.72,31.68 C18,31.28 17.36,30.8 16.72,30.16 C16.48,29.92 16.24,29.68 16.08,29.44 L5.04,29.44 C4.4,29.44 3.92,28.96 3.92,28.32 L3.92,3.52 C3.92,2.88 4.4,2.4 5.04,2.4 L25.36,2.4 C26,2.4 26.48,2.88 26.48,3.52 L26.48,15.52 C27.28,15.84 28.08,16.32 28.72,16.88 L28.72,3.52 C28.72,1.68 27.2,0.16 25.36,0.16 Z" id="路径" fill="#999999"></path>
                        <path d="M26.96,22.88 L24.8,18.24 C24.4,17.76 23.76,17.76 23.36,18.24 L21.2,22.88 C20.88,23.6 21.12,24.32 21.92,24.32 L23.04,24.32 L23.04,28.88 C23.04,29.44 23.52,29.84 24,29.84 C24.56,29.84 24.96,29.36 24.96,28.88 L24.96,24.24 L26.08,24.24 C27.04,24.32 27.36,23.68 26.96,22.88 Z" id="路径" fill="#999999"></path>
                        <!-- <path d="M26.96,22.88 L24.8,18.24 C24.4,17.76 23.76,17.76 23.36,18.24 L21.2,22.88 C20.88,23.6 21.12,24.32 21.92,24.32 L23.04,24.32 L23.04,28.88 C23.04,29.44 23.52,29.84 24,29.84 C24.56,29.84 24.96,29.36 24.96,28.88 L24.96,24.24 L26.08,24.24 C27.04,24.32 27.36,23.68 26.96,22.88 Z" id="路径" fill="#01489C"></path> -->
                    </g>
                </g>
            </g>
        </g>
    </g>
</svg>