<?xml version="1.0" encoding="UTF-8"?>
<svg width="30px" height="32px" viewBox="0 0 30 32" version="1.1" xmlns="http://www.w3.org/2000/svg" xmlns:xlink="http://www.w3.org/1999/xlink">
    <title>Icon_querendingdan</title>
    <g id="门店管理系统" stroke="none" stroke-width="1" fill="none" fill-rule="evenodd">
        <g id="采购管理-采购管理-采购详情" transform="translate(-933.000000, -138.000000)" fill-rule="nonzero">
            <g id="时间轴" transform="translate(252.000000, 98.000000)">
                <g id="确认订单" transform="translate(668.000000, 40.000000)">
                    <g id="编组" transform="translate(12.000000, 0.000000)">
                        <rect id="矩形" fill="#01489C" opacity="0" x="0" y="0" width="32" height="32"></rect>
                        <path d="M14.11,28.14 C14.761696,28.14 15.29,28.668304 15.29,29.32 C15.29,29.971696 14.761696,30.5 14.11,30.5 L4.35,30.5 C3.58264878,30.4921227 2.85017327,30.1783261 2.3151071,29.6282405 C1.78004093,29.078155 1.4866368,28.3372753 1.5,27.57 L1.5,3.46 C1.48931761,2.69350286 1.78360056,1.95416344 2.31809493,1.40466572 C2.8525893,0.855167991 3.58350082,0.540535553 4.35,0.53 L24.62,0.53 C25.3864992,0.540535553 26.1174107,0.855167991 26.6519051,1.40466572 C27.1863994,1.95416344 27.4806824,2.69350286 27.47,3.46 L27.47,13.18 C27.47,13.8151275 26.9551275,14.33 26.32,14.33 C25.6848725,14.33 25.17,13.8151275 25.17,13.18 L25.17,9.67 C25.165061,9.60008712 25.165061,9.52991288 25.17,9.46 L25.17,3.46 C25.1701829,3.14180534 24.9180118,2.88078621 24.6,2.87 L4.35,2.87 C4.19616703,2.87262942 4.04968192,2.93627281 3.94278131,3.04692432 C3.83588071,3.15757583 3.77732485,3.30616782 3.78,3.46 L3.78,27.56 C3.77732485,27.7138322 3.83588071,27.8624242 3.94278131,27.9730757 C4.04968192,28.0837272 4.19616703,28.1473706 4.35,28.15 L14.11,28.15 L14.11,28.14 Z M30.05,18.82 C30.5716271,19.2805326 30.6501033,20.0652943 30.23,20.62 L22.23,31 C22.003503,31.2969838 21.6534468,31.4738543 21.28,31.48 C21.0436472,31.4794864 20.8131927,31.4061599 20.62,31.27 C20.5264663,31.2171924 20.4420514,31.1496604 20.37,31.07 L16.86,27.39 C16.381232,26.8816468 16.381232,26.0883532 16.86,25.58 C17.0817127,25.3365698 17.395736,25.1978293 17.725,25.1978293 C18.054264,25.1978293 18.3682873,25.3365698 18.59,25.58 L21.17,28.28 L28.32,19 C28.5189018,18.7370545 28.8179792,18.5684134 29.1459092,18.5342935 C29.4738391,18.5001736 29.8012276,18.6036334 30.05,18.82 Z M17.5,19.5 C17.457307,20.0930715 16.9432542,20.540074 16.35,20.5 L7.65,20.5 C7.09771525,20.5 6.65,20.0522847 6.65,19.5 C6.65,18.9477153 7.09771525,18.5 7.65,18.5 L16.35,18.5 C16.9413838,18.4654511 17.4520952,18.909548 17.5,19.5 L17.5,19.5 Z M7.71,12.5 L19.29,12.5 C19.8985314,12.4476417 20.4368076,12.892498 20.5,13.5 C20.4419982,14.1102683 19.9002707,14.557977 19.29,14.5 L7.71,14.5 C7.0997293,14.557977 6.55800179,14.1102683 6.5,13.5 C6.56319238,12.892498 7.10146855,12.4476417 7.71,12.5 Z M22.5,7.5 C22.4470633,8.10450764 21.9145922,8.5519624 21.31,8.5 L7.69,8.5 C7.08540783,8.5519624 6.55293667,8.10450764 6.5,7.5 C6.55813319,6.89821015 7.08719007,6.45362453 7.69,6.5 L21.31,6.5 C21.9128099,6.45362453 22.4418668,6.89821015 22.5,7.5 L22.5,7.5 Z" id="形状" fill="#999999"></path>
                    </g>
                </g>
            </g>
        </g>
    </g>
</svg>