<?xml version="1.0" encoding="UTF-8"?>
<svg width="56px" height="56px" viewBox="0 0 56 56" version="1.1" xmlns="http://www.w3.org/2000/svg" xmlns:xlink="http://www.w3.org/1999/xlink">
    <title>icon_lingshou</title>
    <g id="门店管理系统" stroke="none" stroke-width="1" fill="none" fill-rule="evenodd">
        <g id="首页" transform="translate(-1232.000000, -150.000000)" fill-rule="nonzero">
            <g id="工具栏" transform="translate(252.000000, 98.000000)">
                <g id="icon_零售" transform="translate(960.000000, 44.000000)">
                    <g id="icon_lingshou" transform="translate(20.000000, 8.000000)">
                        <rect id="矩形" fill="#000000" opacity="0" x="0" y="0" width="56" height="56"></rect>
                        <path d="M26,26.0884393 L30.5014985,26.0884393 C31.329098,26.0884393 32,25.4336833 32,24.6260008 C32,23.8183184 31.329098,23.1635624 30.5014985,23.1635624 L26.6473527,23.1635624 L30.4085914,19.4972294 C30.7870931,19.1273144 30.9346293,18.5884301 30.7956244,18.0835692 C30.6566196,17.5787083 30.2521919,17.184571 29.7346853,17.0496252 C29.2171788,16.9146794 28.665215,17.0594264 28.2867133,17.4293415 L24.7727273,20.8558346 L21.2572428,17.4293415 C20.8787411,17.0594264 20.3267773,16.9146794 19.8092708,17.0496252 C19.2917643,17.1845711 18.8873366,17.5787083 18.7483317,18.0835692 C18.6093269,18.5884301 18.756863,19.1273143 19.1353647,19.4972294 L22.8966034,23.1635624 L18.4985015,23.1635624 C17.670902,23.1635624 17,23.8183184 17,24.6260008 C17,25.4336833 17.670902,26.0884393 18.4985015,26.0884393 L23,26.0884393 L23,29.0133161 L18.4985015,29.0133161 C17.670902,29.0133161 17,29.668072 17,30.4757544 C17,31.2834369 17.670902,31.9381928 18.4985015,31.9381928 L23,31.9381928 L23,36.5375616 C23,37.345244 23.670902,38 24.4985015,38 L24.5014985,38 C25.3290981,38 26,37.345244 26,36.5375616 L26,31.9381928 L30.5014985,31.9381928 C31.329098,31.9381928 32,31.2834369 32,30.4757544 C32,29.668072 31.329098,29.0133161 30.5014985,29.0133161 L26,29.0133161 L26,26.0884393 L26,26.0884393 Z M9.02000002,15.5676746 L23.1866667,3.66187038 C24.237213,2.77937654 25.762787,2.77937654 26.8133334,3.66187038 L40.98,15.5676746 C41.6263862,16.1106606 42,16.9152534 42,17.763669 L42,42.1424927 C42,43.7206504 40.7314734,45 39.1666667,45 L10.8333334,45 C9.2685266,45 8,43.7206504 8,42.1424927 L8,17.763669 C8,16.9152534 8.37361375,16.1106606 9.02000002,15.5676746 Z M28,1.43053989 L28.927761,0.661870377 C29.9927648,-0.220623459 31.5393334,-0.220623459 32.6043372,0.661870377 L46.9659629,12.5676746 C47.6212446,13.1106606 48,13.9152534 48,14.763669 L48,39.1424927 C48,40.7206504 46.7140162,42 45.1276748,42 L45.1276748,16.1924227 C45.1277815,15.3440071 44.7489195,14.5394142 44.0936378,13.9964283 L29.7320121,2.09062408 C29.2441553,1.68572877 28.634913,1.45354148 28,1.43053989 L28,1.43053989 Z" id="形状" fill="#01489C"></path>
                    </g>
                </g>
            </g>
        </g>
    </g>
</svg>