<?xml version="1.0" encoding="UTF-8"?>
<svg width="56px" height="56px" viewBox="0 0 56 56" version="1.1" xmlns="http://www.w3.org/2000/svg" xmlns:xlink="http://www.w3.org/1999/xlink">
    <title>icon_add shouzhi</title>
    <g id="门店管理系统" stroke="none" stroke-width="1" fill="none" fill-rule="evenodd">
        <g id="首页" transform="translate(-872.000000, -146.000000)" fill-rule="nonzero">
            <g id="工具栏" transform="translate(252.000000, 98.000000)">
                <g id="icon_收支" transform="translate(600.000000, 44.000000)">
                    <g id="icon_add-shouzhi" transform="translate(20.000000, 4.000000)">
                        <rect id="矩形" fill="#000000" opacity="0" x="0" y="0" width="56" height="56"></rect>
                        <path d="M49.9856123,41.7268736 C49.9856123,42.3227858 49.8848985,42.8799394 49.678675,43.3934898 C49.4772474,43.9021953 49.1799019,44.3624527 48.8010261,44.7548827 C48.4229717,45.1464132 47.9713172,45.4577252 47.472563,45.6705526 C46.968994,45.8885693 46.417466,46 45.8131831,46 L11.4457952,46 C10.8463083,46 10.2755967,45.8885693 9.74325229,45.6705526 C9.21570377,45.4573808 8.73611421,45.1473126 8.32366719,44.7548827 C7.91601606,44.3672975 7.58509926,43.9070401 7.35489627,43.3934898 C7.11989739,42.8750946 7,42.317941 7,41.7268736 L7,18.2779712 C7,17.0861469 7.41724292,16.0784254 8.25652465,15.2451173 C9.09101048,14.416654 10.1125362,14 11.3115101,14 L45.6884899,14 C46.8874638,14 47.9089895,14.416654 48.7434754,15.2451173 C49.5779612,16.0735806 50,17.0861469 50,18.2779712 L50,24.6682816 L39.2380103,24.6682816 C38.0390364,24.6682816 37.0175106,25.075246 36.1830248,25.8891749 C35.3485389,26.7031037 34.9265001,27.7059803 34.9265001,28.8978047 C34.9600714,29.7117335 35.1327236,30.4336109 35.4492527,31.058592 C35.7034352,31.5915216 36.1206781,32.076003 36.7057774,32.5168812 C37.2908766,32.9577593 38.1349543,33.1757759 39.2380103,33.1757759 L49.9856123,33.1757759 L49.9856123,41.7268736 Z M42,12 L20,12 C21.6538033,11.0522985 23.3026991,10.0935772 24.9417801,9.11281633 C26.2864153,8.33592149 27.6261432,7.55351675 28.9658711,6.76009223 C30.2908766,5.9776875 31.3214365,5.37159932 32.0673656,4.9418277 C33.1960741,4.26411093 34.2070042,3.95555695 35.0952487,4.00514598 C35.9834932,4.0602449 36.7343297,4.22554168 37.3477582,4.51205609 C38.0593353,4.90325846 38.6727638,5.42118835 39.1880437,6.06033588 C39.1880437,6.07135567 42,12 42,12 Z M37,27.9773243 C37,27.4195011 37.1936937,26.952381 37.5765766,26.5714286 C37.963964,26.1904762 38.4369369,26 39,26 C39.5630631,26 40.036036,26.1904762 40.4234234,26.5714286 C40.8108108,26.952381 41,27.4195011 41,27.9773243 C41,28.5351474 40.8063063,29.0113379 40.4234234,29.4058957 C40.0405405,29.8004535 39.5630631,30 39,30 C38.4369369,30 37.963964,29.8004535 37.5765766,29.4058957 C37.1936937,29.0113379 37,28.5351474 37,27.9773243 Z" id="形状" fill="#01489C"></path>
                    </g>
                </g>
            </g>
        </g>
    </g>
</svg>