<?xml version="1.0" encoding="UTF-8"?>
<svg width="40px" height="40px" viewBox="0 0 40 40" version="1.1" xmlns="http://www.w3.org/2000/svg" xmlns:xlink="http://www.w3.org/1999/xlink">
    <title>icon_fuwu</title>
    <g id="门店管理系统" stroke="none" stroke-width="1" fill="none" fill-rule="evenodd">
        <g id="工单管理" transform="translate(-268.000000, -106.000000)">
            <g id="group" transform="translate(252.000000, 98.000000)">
                <g id="icon_fuwu" transform="translate(16.000000, 8.000000)">
                    <rect id="bg" fill="#01489C" x="0" y="0" width="40" height="40" rx="2"></rect>
                    <g id="新建" transform="translate(4.000000, 4.000000)" fill="#FFFFFF" fill-rule="nonzero">
                        <rect id="矩形" opacity="0" x="0" y="0" width="32" height="32"></rect>
                        <path d="M22.8792727,7.89963638 C23.6356363,7.89963638 24.2523636,8.51854547 24.2523636,9.26909091 L24.2523636,27 C24.247962,27.7546916 23.6347043,28.3640494 22.88,28.3636382 L5.01018181,28.3636382 C4.25491031,28.3648506 3.64076774,27.7552596 3.63636362,27 L3.63636362,9.26327272 C3.63636362,8.51272725 4.25381816,7.89963638 5.01018181,7.89963638 L22.8792727,7.89963638 Z M13.9447273,12.6843634 C13.1862724,12.6843634 12.5713106,13.2989997 12.5709091,14.0574545 L12.5709091,16.7745455 L9.81381819,16.7745455 C9.06078324,16.7746595 8.45038824,17.3851469 8.45038824,18.1381818 C8.45038824,18.8912168 9.06078324,19.5017042 9.81381819,19.5018182 L12.5709091,19.5018182 L12.5709091,22.2181818 C12.588082,22.9644078 13.1979401,23.5603927 13.9443636,23.5603927 C14.6907872,23.5603927 15.3006453,22.9644078 15.3178182,22.2181818 L15.3178182,19.5010909 L18.0850909,19.5010909 C18.4457856,19.5003202 18.7914009,19.3562952 19.045905,19.1007 C19.3004091,18.8451048 19.4429542,18.4988765 19.4421849,18.1381818 C19.4401773,17.3844784 18.8286151,16.7745428 18.0749091,16.7745455 L15.3185455,16.7745455 L15.3185455,14.0574545 C15.3183526,13.6930953 15.1734265,13.3437358 14.9156492,13.0862313 C14.6578719,12.8287268 14.3083593,12.6841707 13.944,12.6843634 L13.9447273,12.6843634 Z M26.7883636,3.63636363 C27.6610909,3.63636363 28.3636364,4.34036363 28.3636364,5.2 L28.3636364,21.496 C28.3636364,22.3549091 27.6545455,23.0589091 26.7883636,23.0589091 L25.5650909,23.0589091 C25.5272727,23.0647348 25.4894545,23.0647348 25.4581818,23.0647348 C25.2227363,23.0656935 24.9965608,22.9730391 24.8294616,22.8071675 C24.6623624,22.641296 24.5680427,22.4158099 24.5672727,22.1803636 C24.5672727,21.7883636 24.8363636,21.4334545 25.2130909,21.3272727 L25.2130909,21.2901818 L26.5810909,21.2901818 L26.5810909,5.40509091 L10.5672727,5.40509091 L10.5672727,6.432 C10.5928291,6.68213072 10.5110621,6.93135974 10.3422962,7.11773723 C10.1735303,7.30411471 9.93361379,7.41013844 9.68218181,7.40945453 C9.28322835,7.40991979 8.93235494,7.14572576 8.82254547,6.76218181 L8.79127272,6.76218181 L8.79127272,5.2 C8.79127272,4.34109091 9.49381819,3.63709091 10.3665455,3.63709091 L26.7890909,3.63709091 L26.7883636,3.63636363 Z" id="形状"></path>
                    </g>
                </g>
            </g>
        </g>
    </g>
</svg>