<?xml version="1.0" encoding="UTF-8"?>
<svg width="56px" height="56px" viewBox="0 0 56 56" version="1.1" xmlns="http://www.w3.org/2000/svg" xmlns:xlink="http://www.w3.org/1999/xlink">
    <title>icon_gongdanchaxun</title>
    <g id="门店管理系统" stroke="none" stroke-width="1" fill="none" fill-rule="evenodd">
        <g id="首页" transform="translate(-392.000000, -146.000000)" fill-rule="nonzero">
            <g id="工具栏" transform="translate(252.000000, 98.000000)">
                <g id="icon_查询" transform="translate(120.000000, 44.000000)">
                    <g id="icon_gongdanchaxun" transform="translate(20.000000, 4.000000)">
                        <rect id="矩形" fill="#000000" opacity="0" x="0" y="0" width="56" height="56"></rect>
                        <path d="M45.571125,43.7871769 L41.0328911,39.2052462 C43.9981874,34.6613794 42.7246306,28.5711704 38.1863967,25.6021935 C33.6481628,22.6332167 27.5655036,23.9083542 24.6002073,28.452221 C21.634911,32.9960879 22.9084678,39.0862968 27.4467017,42.0552737 C29.0481518,43.1020284 30.9204703,43.6587115 32.8355575,43.6539535 C34.7649009,43.6491956 36.6514757,43.0734805 38.2529258,41.998178 L42.7959118,46.5753507 C43.361409,47.1415498 44.283312,47.1415498 44.8488092,46.5753507 L45.5758771,45.8426224 C46.1413743,45.2669073 46.1413743,44.348618 45.5758771,43.7729029 L45.571125,43.7871769 L45.571125,43.7871769 Z M38.4181817,36.5870916 C37.7322713,38.0348365 36.4938219,39.1444567 34.9791031,39.6683117 C34.3741683,39.9064276 33.7311273,40.0207233 33.083323,39.9969117 C29.7680894,40.0445349 27.0482641,37.3966858 27.0006315,34.0821121 C26.9529988,30.7675384 29.6061383,28.0482545 32.9213719,28.0006313 C36.2366055,27.9530082 38.9564308,30.6056196 38.9993002,33.9154309 C39.01359,34.8440831 38.8087695,35.7584482 38.4086551,36.591854 L38.4181817,36.5870916 L38.4181817,36.5870916 Z M20.4796597,35.593814 L15.8196454,35.593814 C15.0138129,35.5611781 14.3829612,34.8711622 14.4151945,34.055265 C14.4474278,33.2813282 15.0552557,32.6659086 15.8196454,32.6332727 L20.4059836,32.6332727 C20.5211026,31.2718899 20.8572498,29.9384808 21.3914017,28.6889925 L15.8242502,28.6889925 C15.0184177,28.6563566 14.3875659,27.9663407 14.4197992,27.1504435 C14.4520325,26.3765067 15.0598605,25.7610871 15.8242502,25.7284512 L23.1596285,25.7284512 C24.5917079,23.9334774 26.4796584,22.5674323 28.6208705,21.784171 L15.8242502,21.784171 C15.0184177,21.784171 14.3599374,21.1221287 14.3645422,20.3015693 C14.3645422,19.485672 15.0184177,18.8236297 15.8242502,18.8236297 L38.1803465,18.8236297 C38.986179,18.8236297 39.6446593,19.485672 39.6400545,20.3062315 C39.6400545,21.1221287 38.986179,21.784171 38.1803465,21.784171 L37.0844143,21.784171 C41.0399007,23.2434615 44.0145739,26.6142825 45,30.7637025 L45,9.48976575 C45.0045967,7.02342506 43.0337606,5.01398681 40.597844,5 L13.3975431,5 C10.9616266,5.01864908 9,7.01876279 9,9.48510348 L9,41.5148965 C9,43.9812372 10.9662313,45.9860132 13.4021479,46 L29.3530269,46 C24.6423603,44.5873323 21.1749781,40.5218331 20.4796597,35.593814 Z M16.3960304,12 L38.6039696,12 C39.4042969,12.0330709 40.0308389,12.7322835 39.9988258,13.5590551 C39.9668127,14.3433071 39.3631373,14.9669291 38.6039696,15 L16.3960304,15 C15.5957031,14.9669291 14.9691611,14.2677165 15.0011742,13.4409449 C15.0331873,12.6566929 15.641436,12.0330709 16.3960304,12 Z" id="形状" fill="#01489C"></path>
                    </g>
                </g>
            </g>
        </g>
    </g>
</svg>