<?xml version="1.0" encoding="UTF-8"?>
<svg width="56px" height="56px" viewBox="0 0 56 56" version="1.1" xmlns="http://www.w3.org/2000/svg" xmlns:xlink="http://www.w3.org/1999/xlink">
    <title>icon_add person</title>
    <g id="门店管理系统" stroke="none" stroke-width="1" fill="none" fill-rule="evenodd">
        <g id="首页" transform="translate(-992.000000, -150.000000)" fill-rule="nonzero">
            <g id="工具栏" transform="translate(252.000000, 98.000000)">
                <g id="icon_客户" transform="translate(720.000000, 44.000000)">
                    <g id="icon_add-person" transform="translate(20.000000, 8.000000)">
                        <rect id="矩形" fill="#000000" opacity="0" x="0" y="0" width="56" height="56"></rect>
                        <path d="M15.1562146,25.0021766 C15.0140378,25.4358615 14.937518,25.9003579 14.937518,26.3824611 L14.937518,30.7829641 C14.9375053,31.9506486 15.3984346,33.0705121 16.2189053,33.8961942 C17.0393761,34.7218764 18.1521787,35.1857405 19.312506,35.1857405 L23.687494,35.1857405 C24.8478213,35.1857405 25.9606239,34.7218764 26.7810947,33.8961942 C27.6015654,33.0705121 28.0624947,31.9506486 28.062482,30.7829641 L28.062482,26.3824611 C28.062482,25.8981329 27.9859142,25.4358615 27.8437374,25 C34.3712279,26.7566992 39,31.148399 39,36.2863984 L39,39.5972719 C39,40.7649564 38.5390585,41.8848148 37.7185787,42.7104879 C36.8980989,43.536161 35.7852912,44 34.624964,44 L8.37498798,44 C5.95874884,44 4,42.0288315 4,39.5972719 L4,36.2863984 C4,31.148399 8.62872402,26.7566992 15.1562146,25 L15.1562146,25.0021766 Z M44.5251206,40 C44.9364319,39.325396 45.1524529,38.5569249 45.1506902,37.7746045 L45.1506902,34.4651633 C45.1506902,29.6274477 40.5890488,25.4494075 34,23.5164762 C36.636974,21.0976184 38.3013804,17.5419042 38.3013804,13.574962 C38.3013804,11.1802628 37.6940712,8.93510555 36.6346664,7 C41.3903999,7.34305242 45.1506902,11.633237 45.1506902,16.8733869 C45.1506902,20.2927981 43.5525029,23.3076007 41.1164436,25.0843707 C47.4429237,26.4037213 52,30.1046288 52,34.4651633 L52,37.8009857 C52,38.3841877 51.7594855,38.9435084 51.33133,39.3559036 C50.9031745,39.7682988 50.3224635,40 49.7169469,40 L44.5250203,40 L44.5251206,40 Z M23.000022,26 C24.1045571,26 24.9999537,27.043028 25,28.329642 L25,30.6593864 C25.0033378,31.494298 24.6228806,32.2674681 24.0027051,32.6860578 C23.3825295,33.1046474 22.6174705,33.1046474 21.9972949,32.6860578 C21.3771194,32.2674681 20.9966622,31.494298 21,30.6593864 L21,28.3296932 C21,27.0430592 21.8954257,26 22.999978,26 L23.000022,26 Z M21.5000253,24 C15.1496822,24 10,18.6268707 10,12.0011029 C10,5.37308136 15.1497327,0 21.5000253,0 C27.8503178,0 33,5.37308136 33,12.001055 C33,18.6268707 27.8502673,24 21.5000253,24 L21.5000253,24 Z" id="形状" fill="#01489C"></path>
                    </g>
                </g>
            </g>
        </g>
    </g>
</svg>