<?xml version="1.0" encoding="UTF-8"?>
<svg width="58px" height="56px" viewBox="0 0 58 56" version="1.1" xmlns="http://www.w3.org/2000/svg" xmlns:xlink="http://www.w3.org/1999/xlink">
    <title>icon_caigou</title>
    <g id="门店管理系统" stroke="none" stroke-width="1" fill="none" fill-rule="evenodd">
        <g id="首页" transform="translate(-751.000000, -150.000000)" fill-rule="nonzero">
            <g id="工具栏" transform="translate(252.000000, 98.000000)">
                <g id="icon_线下" transform="translate(480.000000, 44.000000)">
                    <g id="icon_caigou" transform="translate(47.960143, 36.000000) scale(-1, 1) translate(-47.960143, -36.000000) translate(19.611152, 8.000000)">
                        <rect id="矩形" fill="#000000" opacity="0" x="0.30913372" y="0" width="56" height="56"></rect>
                        <path d="M1.23604993,20.6526798 C0.640685217,21.2933119 0.30913372,22.1403659 0.30913372,23.020659 L0.30913372,37.7888961 C0.30913372,38.4577703 0.843838213,39 1.50342963,39 C2.06500919,38.9768948 2.53726246,38.5653405 2.64424957,38.0058103 C3.03145884,34.6543629 5.83186033,32.1278407 9.15940108,32.1278407 C12.4869418,32.1278407 15.2873433,34.6543629 15.6745526,38.0058103 C15.7676591,38.566109 16.2375136,38.9820723 16.7975472,39 L19.1148378,39 C19.7744292,39 20.3091337,38.4577703 20.3091337,37.7888961 L20.3091337,12.2111049 C20.3091337,11.5422307 19.7744292,11 19.1148378,11 L13.125533,11 C11.2354012,10.9989936 9.42898897,11.790608 8.13444565,13.1872185 L1.23604993,20.6526798 Z M5.37976195,24.0775717 C5.37671501,23.5136207 5.61182355,22.9724016 6.03173645,22.5767285 L10.8598722,17.9224283 C12.1394693,16.6946426 13.8760224,16.0031958 15.6880079,16 L16.1285312,16 C16.78056,16 17.3091337,16.5058503 17.3091337,17.1298482 L17.3091337,24.8701518 C17.3091337,25.4941497 16.78056,26 16.1285312,26 L6.4370179,26 C5.80162152,25.981639 5.29935698,25.4784354 5.3092782,24.8701518 L5.37976195,24.0775717 Z" id="形状" fill="#01489C"></path>
                        <path d="M8.9099439,35.0014177 C10.8873614,35.0457557 12.6039736,36.3762109 13.1402415,38.2800974 C13.6765094,40.1839839 12.9066779,42.2148388 11.2431232,43.2847926 C9.57956838,44.3547464 7.41239525,44.2128941 5.90249493,42.9352218 C4.3925946,41.6575495 3.89403992,39.5436724 4.67389201,37.7259326 C5.39393114,36.0352554 7.07294919,34.9553561 8.9099439,35.0014177 Z M43.9099439,35.0017297 C45.8873614,35.0460662 47.6039736,36.3764753 48.1402415,38.2802958 C48.6765094,40.1841162 47.9066779,42.2149007 46.2431232,43.2848174 C44.5795684,44.3547341 42.4123952,44.2128867 40.9024949,42.9352587 C39.3925946,41.6576307 38.8940399,39.543827 39.673892,37.7261501 C40.3899943,36.0322138 42.0715632,34.9507113 43.9099439,35.0017297 L43.9099439,35.0017297 Z" id="形状" fill="#01489C"></path>
                        <path d="M20.3094812,30 L20.3094812,36.7368358 C20.2987489,37.3352841 20.5370426,37.9120455 20.9690839,38.3333255 C21.3921788,38.7571871 21.9697779,38.9971873 22.5735229,39 L35.9616754,39 C36.5435285,39.0021315 37.0448578,38.5971316 37.1560911,38.0350802 C37.6616463,34.687828 40.7077169,32.2927302 44.1367138,32.5462797 C47.5657107,32.7998292 50.213904,35.6159765 50.2055287,39 C50.766477,38.9930334 51.3029974,38.7730353 51.7030052,38.3859571 C52.0929985,37.9915703 52.3105697,37.4625821 52.3091337,36.9122742 L52.3091337,30 L20.3094812,30 Z M20.3630139,21.4833388 C20.231671,22.0685 20.5813915,22.6544354 21.1712175,22.8374343 L50.7335092,29.9724762 C51.36514,30.1061535 51.9951037,29.7408 52.1703155,29.1391867 L54.8822876,18.6362661 L55.7084513,15.9975158 L57.217098,10.1818491 C57.4122737,9.44494731 57.2942607,8.66319424 56.8893769,8.01092696 C56.4844931,7.35865967 55.8264111,6.89012477 55.0618884,6.70980921 L27.116004,0.0261325041 C26.483368,-0.10516628 25.8565746,0.270619072 25.6971577,0.876782282 L20.3091337,21.4833388 L20.3630139,21.4833388 Z" id="形状" fill="#01489C"></path>
                    </g>
                </g>
            </g>
        </g>
    </g>
</svg>