<?xml version="1.0" encoding="UTF-8"?>
<svg width="32px" height="32px" viewBox="0 0 32 32" version="1.1" xmlns="http://www.w3.org/2000/svg" xmlns:xlink="http://www.w3.org/1999/xlink">
    <title>icon_gongyingshangzongshu</title>
    <g id="门店管理系统" stroke="none" stroke-width="1" fill="none" fill-rule="evenodd">
        <g id="供应管理-平台供应商" transform="translate(-780.000000, -158.000000)">
            <g id="group" transform="translate(252.000000, 98.000000)">
                <g id="供应商" transform="translate(360.000000, 0.000000)">
                    <g id="icon_gongyingshangzongshu" transform="translate(168.000000, 60.000000)">
                        <rect id="矩形" fill-opacity="0.202394285" fill="#01489C" x="0" y="0" width="32" height="32" rx="8"></rect>
                        <g id="编组" transform="translate(4.000000, 4.000000)" fill-rule="nonzero">
                            <rect id="矩形" fill="#000000" opacity="0" x="0" y="0" width="24" height="24"></rect>
                            <path d="M21,9.75 L21,9.75 L21,9.75 L21,11.25 C21,11.6642136 20.6642136,12 20.25,12 C19.8357864,12 19.5,11.6642136 19.5,11.25 L19.5,9.75 L19.5,9.75 L4.5,9.75 L4.5,20 C4.5,20.5522847 4.94771525,21 5.5,21 L8.25,21 C8.66421356,21 9,21.3357864 9,21.75 C9,22.1642136 8.66421356,22.5 8.25,22.5 L5,22.5 C3.8954305,22.5 3,21.6045695 3,20.5 L3,9.75 L3,9.75 C2.16223165,9.75 1.48308622,9.07085457 1.48308622,8.23308622 C1.48308622,8.03810889 1.52067531,7.84495991 1.59379577,7.66421269 L3.58183464,2.74995931 C3.88745991,1.99448113 4.62091131,1.5 5.4358678,1.5 L18.5768569,1.5 C19.3929532,1.5 20.1271909,1.99584657 20.4320605,2.75285893 L22.4094663,7.662896 C22.72296,8.44132274 22.3460573,9.32649914 21.5676305,9.63999282 C21.3872054,9.71265495 21.1945071,9.75 21,9.75 Z M15.75,10.5 C17.535,10.5 18.981,11.9325 18.981,13.6995 C18.9794269,14.8505164 18.3588639,15.9117192 17.3565,16.4775 L18.012,18.1005 L21,18.1005 L21,22.5 L10.5,22.5 L10.5,18.1005 L13.4865,18.1005 L14.1435,16.4775 C13.1411361,15.9117192 12.5205731,14.8505164 12.519,13.6995 C12.519,11.9325 13.965,10.5 15.75,10.5 Z M14.4975,19.6005 L12,19.599 L12,21 L19.5,21 L19.5,19.599 L16.9995,19.599 L15.75,16.503 L14.4975,19.6005 Z M15.75,12 C14.79,12 14.019,12.765 14.019,13.6995 C14.019,14.2455 14.2815,14.745 14.715,15.063 L14.8845,15.1725 L15.7485,15.6645 L16.6155,15.1725 C17.0895,14.9025 17.4045,14.433 17.469,13.902 L17.481,13.6995 C17.481,12.765 16.7085,12 15.75,12 Z M18.912,2.9985 L5.0985,2.9985 L2.9745,8.2485 L21.027,8.2485 L18.912,2.9985 Z" id="形状" fill="#01489C"></path>
                        </g>
                    </g>
                </g>
            </g>
        </g>
    </g>
</svg>