<?xml version="1.0" encoding="UTF-8"?>
<svg width="32px" height="32px" viewBox="0 0 32 32" version="1.1" xmlns="http://www.w3.org/2000/svg" xmlns:xlink="http://www.w3.org/1999/xlink">
    <title>icon_yiwancheng</title>
    <g id="门店管理系统" stroke="none" stroke-width="1" fill="none" fill-rule="evenodd">
        <g id="工单管理" transform="translate(-1084.000000, -154.000000)">
            <g id="group" transform="translate(252.000000, 98.000000)">
                <g id="已完成" transform="translate(732.000000, 0.000000)">
                    <g id="icon_yiwancheng" transform="translate(100.000000, 56.000000)">
                        <rect id="矩形" fill-opacity="0.198368526" fill="#4988FD" x="0" y="0" width="32" height="32" rx="8"></rect>
                        <g id="订单已完成" transform="translate(4.000000, 4.000000)" fill-rule="nonzero">
                            <rect id="矩形" fill="#000000" opacity="0" x="0" y="0" width="24" height="24"></rect>
                            <path d="M22.4769844,4.87870312 C22.482375,4.81492969 22.4849531,4.75096875 22.4849531,4.68717187 C22.4849531,2.931 21.0562031,1.50225 19.3000313,1.50225 C19.2639375,1.50225 19.228875,1.50365625 19.1471719,1.50724219 L4.80911719,1.50623438 C4.76767969,1.50424219 4.72560938,1.50225 4.68199219,1.50225 C2.92858594,1.50225 1.50222656,2.9281875 1.50222656,4.683 L1.50663281,4.9396875 L1.49946094,4.9396875 L1.508625,18.8843437 L1.50482813,19.3620469 C1.50482813,21.097125 2.91623438,22.5085312 4.65107813,22.5085312 C4.69017188,22.5085312 4.81530469,22.5029297 4.81748438,22.5029297 L19.089375,22.5049219 C19.1593359,22.5132891 19.2350625,22.5158906 19.3132031,22.5158906 C20.1526172,22.5158906 20.9424375,22.1888437 21.5369297,21.59475 C22.1316094,21.0008437 22.4590547,20.2122422 22.4590547,19.3730156 L22.4556563,19.0914141 L22.4771719,19.0914141 L22.4769844,4.87867969 L22.4769844,4.87870312 Z M4.71944531,21.1401094 L4.65885938,21.1353516 C3.66220313,21.1353516 2.8741875,20.31825 2.86502344,19.2765469 L2.86502344,7.79697656 L21.1122656,7.79697656 L21.1230469,19.1685234 L21.1023047,19.2356719 C21.0897656,19.2787266 21.0835547,19.3195781 21.0835547,19.3568438 C21.0835547,20.3032969 20.3439844,21.0857344 19.3995234,21.1381406 L19.1460234,21.1526953 L19.1460234,21.1403437 L4.71946875,21.1401094 L4.71944531,21.1401094 Z M21.1120313,6.4318125 L2.86640625,6.4318125 L2.85761719,4.88648437 L2.87753906,4.81795312 C2.88972656,4.77529687 2.89586719,4.732875 2.89586719,4.69497656 C2.89586719,3.70507031 3.70978125,2.89814062 4.7281875,2.89476562 L4.73873437,2.89317187 L19.2272578,2.89359375 L19.2896484,2.89835156 C20.2817344,2.89835156 21.088875,3.70551562 21.088875,4.69760156 C21.088875,4.72867969 21.0934688,4.76057812 21.1042266,4.80382031 L21.1120313,4.82453906 L21.1120313,6.4318125 L21.1120313,6.4318125 Z" id="形状" fill="#4988FD"></path>
                            <path d="M16.3516406,11.0492578 C16.1669062,11.0492578 15.9927187,11.1213984 15.861375,11.2527422 L10.6247344,16.4895938 L8.12341406,13.9884375 C7.99347656,13.8571172 7.81989844,13.7847656 7.63492969,13.7847656 C7.44996094,13.7847656 7.27579687,13.8569063 7.14466406,13.9878516 C7.01392969,14.1171797 6.94136719,14.2901953 6.94075618,14.4751172 C6.94035937,14.6604609 7.01271094,14.8350469 7.14442969,14.9671641 L10.1338828,17.9568047 C10.2644297,18.0871172 10.4388047,18.1588828 10.6247344,18.1588828 C10.8104766,18.1588828 10.9848281,18.0871641 11.115375,17.9566172 L16.8399141,12.2320781 C16.9706484,12.1029141 17.0432109,11.9301328 17.0438219,11.7449766 C17.0442187,11.5588359 16.9716562,11.3838516 16.8403359,11.2531172 C16.7102109,11.1215859 16.5366328,11.0492578 16.3516641,11.0492578 L16.3516406,11.0492578 Z" id="路径" fill-opacity="0.503646744" fill="#4988FD"></path>
                        </g>
                    </g>
                </g>
            </g>
        </g>
    </g>
</svg>