<?xml version="1.0" encoding="UTF-8"?>
<svg width="32px" height="32px" viewBox="0 0 32 32" version="1.1" xmlns="http://www.w3.org/2000/svg" xmlns:xlink="http://www.w3.org/1999/xlink">
    <title>Icon_yifahuo</title>
    <g id="门店管理系统" stroke="none" stroke-width="1" fill="none" fill-rule="evenodd">
        <g id="采购管理-采购管理-采购详情" transform="translate(-1110.000000, -138.000000)" fill-rule="nonzero">
            <g id="时间轴" transform="translate(252.000000, 98.000000)">
                <g id="已发货" transform="translate(853.000000, 40.067203)">
                    <g id="编组" transform="translate(5.000000, 0.000000)">
                        <rect id="矩形" fill="#000000" opacity="0" x="0" y="6.53753887e-08" width="31.9900683" height="31.8655933"></rect>
                        <path d="M2.36971848,10.7573379 L2.36971848,26.3693185 C2.37323946,28.0884215 3.76597133,29.4811533 5.48507427,29.4846743 L26.5149258,29.4846743 C27.3412996,29.4850991 28.1339494,29.1570114 28.718284,28.5726768 C29.3026186,27.9883422 29.6307063,27.1956924 29.6302815,26.3693185 L29.6302815,23.1163559 C29.6854823,22.4734873 30.2267427,21.9817495 30.8719436,21.9882995 C31.4938595,21.9909292 31.9973703,22.4944401 32,23.1163559 L32,26.4765239 C31.9991288,29.4474692 29.594666,31.8576569 26.6237312,31.8655934 L5.38426921,31.8655934 C2.4120815,31.8620666 0.00352677448,29.4535119 0,26.4813241 L0,9.62448128 C0.00104430854,9.44793273 0.0438092572,9.27413159 0.124806233,9.11725594 L0.136006802,9.08365426 L2.92334617,2.42412127 C3.54405357,0.954651805 4.98434306,0 6.57952897,0 L25.4316716,0 C27.0259597,0.00268620626 28.4647564,0.956636755 29.0878544,2.42412127 L31.8879944,9.0948548 C32.1446757,9.70816411 31.8590193,10.4137356 31.2479624,10.6757339 C31.102167,10.7388595 30.9443611,10.7694378 30.7855393,10.7653383 L2.36971848,10.7653383 L2.36971848,10.7573379 Z M29.0654533,8.3748188 L26.8861443,3.41457078 C26.6223303,2.78179397 26.0020183,2.37141432 25.3164658,2.37607884 L6.69313467,2.37607884 C6.00848665,2.37444634 5.38970694,2.78381233 5.12345617,3.41457078 L2.94254712,8.3748188 L29.0654533,8.3748188 Z" id="形状" fill="#999999"></path>
                        <path d="M21.2378619,18.0297016 L19.1577579,15.1623582 C18.7722285,14.6003141 18.7799045,13.8570275 19.1769589,13.3030652 C19.3334037,13.0645832 19.6012877,12.923072 19.8864572,12.9282687 C20.1716268,12.9334654 20.434177,13.0846429 20.5818291,13.3286665 L23.580379,17.439272 C24.1820555,18.3326241 24.1858456,19.5005819 23.5899795,20.39782 L20.5818291,24.5740288 C20.4368851,24.8169075 20.1778985,24.968898 19.895174,24.9770037 C19.6124495,24.9851093 19.3451804,24.8482063 19.1865593,24.6140308 C18.788925,24.0678768 18.7729696,23.3320146 19.1465573,22.7691385 L20.660233,20.6618332 L9.21326068,20.6618332 C8.82111787,20.635848 8.48234484,20.3783049 8.35241762,20.0074004 C8.17438061,19.5892749 8.17438061,19.1166605 8.35241762,18.698535 C8.48234485,18.3276305 8.82111788,18.0700875 9.21326068,18.0441023 L21.2442622,18.0441023 L21.2378619,18.0297016 Z" id="路径" fill="#999999"></path>
                    </g>
                </g>
            </g>
        </g>
    </g>
</svg>