<?xml version="1.0" encoding="UTF-8"?>
<svg width="32px" height="32px" viewBox="0 0 32 32" version="1.1" xmlns="http://www.w3.org/2000/svg" xmlns:xlink="http://www.w3.org/1999/xlink">
    <title>Icon_wanchengicon</title>
    <g id="门店管理系统" stroke="none" stroke-width="1" fill="none" fill-rule="evenodd">
        <g id="采购管理-采购管理-采购详情" transform="translate(-1281.000000, -138.000000)" fill-rule="nonzero">
            <g id="时间轴" transform="translate(252.000000, 98.000000)">
                <g id="已发货" transform="translate(1017.000000, 40.000000)">
                    <g id="编组" transform="translate(12.000000, 0.000000)">
                        <rect id="矩形" fill="#000000" opacity="0" x="0" y="0" width="32" height="32"></rect>
                        <path d="M15.7546667,21.2302222 C15.4422427,21.2265959 15.143632,21.1008987 14.9226667,20.88 L9.07555556,15.0133333 C8.64867232,14.7551449 8.42532899,14.2603605 8.51406156,13.7694256 C8.60279414,13.2784907 8.98520555,12.8931916 9.47545905,12.8007684 C9.96571255,12.7083451 10.4621631,12.92796 10.7235556,13.3528889 L15.7404444,18.3928889 L28.7786667,5.30488887 C29.2562334,5.00910706 29.8748981,5.08302548 30.2693361,5.48299493 C30.663774,5.88296437 30.7290701,6.50259848 30.4266667,6.976 L16.56,20.8835556 C16.3426591,21.1012216 16.0497365,21.2266689 15.7422222,21.2337778 L15.7546667,21.2337778 L15.7546667,21.2302222 L15.7546667,21.2302222 Z M31.776,13.3528889 C31.9146667,14.2311111 31.9786667,15.1217777 31.968,16.0106667 C31.9667687,23.3103634 27.0176588,29.6807259 19.9448518,31.4865431 C12.8720449,33.2923603 5.47482049,30.074243 1.97436275,23.6685916 C-1.526095,17.2629403 -0.239290641,9.29931408 5.10046822,4.32211112 C10.4402271,-0.655091831 18.4745378,-1.37970098 24.6186667,2.56177778 C24.9371689,2.76351275 25.1318781,3.1127848 25.136,3.48977778 C25.1340481,4.11341742 24.628973,4.6184925 24.0053333,4.62044444 C23.7945868,4.61403915 23.5902055,4.54673533 23.4168889,4.42666666 C21.2099912,3.00853646 18.6410333,2.25673666 16.0177778,2.26133334 C10.2577464,2.2655332 5.11454582,5.86959099 3.14443489,11.2822283 C1.17432396,16.6948656 2.79745781,22.7617578 7.20711112,26.4675556 C11.6118536,30.1711435 17.8605367,30.7302267 22.8527898,27.8674083 C27.8450429,25.0045899 30.5184913,19.329091 29.5466667,13.6568889 L29.5466667,13.5697778 C29.5486231,12.9454463 30.0547773,12.4400866 30.6791111,12.4391111 C31.2177778,12.4391111 31.6746667,12.8248889 31.7742222,13.3528889 L31.776,13.3528889 Z" id="形状" fill="#999999"></path>
                    </g>
                </g>
            </g>
        </g>
    </g>
</svg>