<?xml version="1.0" encoding="UTF-8"?>
<svg width="32px" height="32px" viewBox="0 0 32 32" version="1.1" xmlns="http://www.w3.org/2000/svg" xmlns:xlink="http://www.w3.org/1999/xlink">
    <title>icon_yizuofei</title>
    <g id="门店管理系统" stroke="none" stroke-width="1" fill="none" fill-rule="evenodd">
        <g id="工单管理" transform="translate(-1248.000000, -154.000000)">
            <g id="group" transform="translate(252.000000, 98.000000)">
                <g id="已作废" transform="translate(896.000000, 0.000000)">
                    <g id="icon_yizuofei" transform="translate(100.000000, 56.000000)">
                        <rect id="矩形" fill-opacity="0.199631911" fill="#67C23A" x="0" y="0" width="32" height="32" rx="8"></rect>
                        <g id="作废" transform="translate(4.000000, 4.000000)" fill-rule="nonzero">
                            <rect id="矩形" fill="#000000" opacity="0" x="0" y="0" width="24" height="24"></rect>
                            <path d="M10.5333333,18.8 C9.86666667,15.7333333 11.4666667,12.8 14.4,11.4666667 C17.3333333,10.1333333 20.5333333,11.3333333 22.2666667,13.8666667 C24,16.4 23.6,19.8666667 21.4666667,22.1333333 C20.1333333,23.3333333 18.5333333,23.8666667 16.8,23.8666667 C13.7333333,24 11.2,21.7333333 10.5333333,18.8 Z M16.8,22.4 C19.6,22.4 21.6,20.2666667 21.6,17.6 C21.6,14.9333333 19.4666667,12.8 16.8,12.8 C14.1333333,12.8 12,14.8 12,17.4666667 C12,20.1333333 14,22.4 16.8,22.4 Z M13.6,6.13333334 C13.6,6.26666667 13.6,6.53333334 13.3333333,6.79999999 C13.3333333,6.93333333 13.2,6.93333333 13.0666667,6.93333333 C13.0666667,6.93333333 12.9333333,6.93333333 12.9333333,7.06666666 L6,7.06666666 C5.73333333,7.20000001 5.59999999,6.93333333 5.33333334,6.79999999 C5.06666667,6.53333332 5.06666667,6.26666665 5.06666667,6.13333334 C5.06666667,6 5.06666667,5.73333333 5.33333334,5.46666666 C5.60000002,5.33333332 5.73333335,5.20000001 6,5.20000001 L12.8,5.20000001 C12.9333333,5.20000001 13.2,5.33333334 13.3333333,5.46666666 C13.6,5.73333333 13.6,6 13.6,6.13333334 L13.6,6.13333334 Z M13.7333333,10.2666667 C13.7333333,10.4 13.7333333,10.6666667 13.4666667,10.9333333 C13.4666667,10.9333333 13.3333333,11.0666667 13.2,11.0666667 C13.0666667,11.0666667 13.0666667,11.0666667 13.0666667,11.2 L6.13333334,11.2 C5.86666666,11.2 5.73333333,11.0666667 5.46666666,10.8 C5.33333334,10.6666667 5.33333334,10.4 5.33333334,10.2666667 C5.33333334,10.1333333 5.33333334,9.86666665 5.59999999,9.6 C5.73333333,9.46666666 6,9.19999999 6.26666667,9.19999999 L13.0666667,9.19999999 C13.3333333,9.19999999 13.4666667,9.46666666 13.7333333,9.6 L13.7333333,10.2666667 Z" id="形状" fill-opacity="0.499308553" fill="#67C23A"></path>
                            <path d="M17.8666667,17.4666667 L18.9333333,18.6666667 C19.0666667,18.8 19.2,18.9333333 19.2,19.3333333 C19.2,19.6 19.0666667,19.8666667 18.9333333,20 C18.6666667,20.2666667 18.1333333,20.2666667 17.8666667,20 L16.8,18.6666667 L15.7333333,19.8666667 C15.4666667,20.1333333 14.9333333,20.1333333 14.6666667,19.8666667 C14.4,19.6 14.4,19.0666667 14.6666667,18.6666667 L15.7333333,17.4666667 L14.6666667,16.4 C14.4,16.1333333 14.4,15.6 14.6666667,15.2 C14.9333333,14.9333333 15.4666667,14.9333333 15.7333333,15.2 L16.8,16.4 L17.8666667,15.2 C18.1333333,14.9333333 18.6666667,14.9333333 18.9333333,15.2 C19.0666667,15.3333333 19.2,15.4666667 19.2,15.8666667 C19.2,16.2666667 19.0666667,16.4 18.9333333,16.5333333 L17.8666667,17.4666667 L17.8666667,17.4666667 Z" id="路径" fill-opacity="0.496331062" fill="#67C23A"></path>
                            <path d="M18.5333333,4.53333333 L18.5333333,8.53333334 C18.5333333,9.19999999 18.1333333,9.6 17.4666667,9.6 C16.9333333,9.6 16.4,9.19999999 16.4,8.53333334 L16.4,4.53333333 C16.4,3.6 15.8666666,3.06666666 14.9333333,3.06666666 L3.86666667,3.06666666 C3.06666668,3.06666666 2.40000001,3.6 2.40000001,4.53333333 L2.40000001,19.0666667 C2.40000001,19.8666667 2.93333334,20.5333333 3.86666667,20.5333333 L9.46666666,20.5333333 C10.1333333,20.5333333 10.5333333,20.9333333 10.5333333,21.6 C10.5333333,22.1333333 10.1333333,22.6666667 9.46666666,22.6666667 L3.86666667,22.6666667 C1.99999999,22.6666667 0.400000008,21.0666667 0.400000008,19.2 L0.400000008,4.53333333 C0.400000008,2.66666667 1.99999999,1.06666666 3.86666667,1.06666666 L15.2,1.06666666 C17.0666666,1.2 18.5333333,2.66666667 18.5333333,4.53333333 Z" id="路径" fill="#67C23A"></path>
                        </g>
                    </g>
                </g>
            </g>
        </g>
    </g>
</svg>