<?xml version="1.0" encoding="UTF-8"?>
<svg width="40px" height="40px" viewBox="0 0 40 40" version="1.1" xmlns="http://www.w3.org/2000/svg" xmlns:xlink="http://www.w3.org/1999/xlink">
    <title>icon_piliangdaoru</title>
    <g id="门店管理系统" stroke="none" stroke-width="1" fill="none" fill-rule="evenodd">
        <g id="商品管理-普通商品管理" transform="translate(-448.000000, -106.000000)">
            <g id="group" transform="translate(252.000000, 98.000000)">
                <g id="批量导入" transform="translate(180.000000, 0.000000)">
                    <g id="icon_piliangdaoru" transform="translate(16.000000, 8.000000)">
                        <rect id="bg" fill="#4988FD" x="0" y="0" width="40" height="40" rx="2"></rect>
                        <g id="Icon-piliangdaoru" transform="translate(4.000000, 4.000000)" fill="#FFFFFF" fill-rule="nonzero">
                            <g id="编组">
                                <rect id="矩形" opacity="0" x="0" y="0" width="32" height="32"></rect>
                                <path d="M5.52,14.4426667 L5.52,22.2213333 C5.52,22.8346667 6.472,23.3333333 7.08533334,23.3333333 L24.9813333,23.3333333 C25.5946667,23.3333333 26.616,22.8346667 26.616,22.2213333 L26.616,14.4426667 L29.3333333,14.4426667 L29.3333333,22.2213333 C29.3333333,24.0613333 27.8053333,26.0506667 25.9706667,26.0506667 L5.97866666,26.0506667 C4.13866666,26.0506667 2.68,24.0613333 2.68,22.2213333 L2.66666666,14.4426667 L5.52,14.4426667 Z M17.64,0 L17.64,14.6666667 L22.4773333,10.272 L24.3093333,12.2373333 L16.0293333,20.544 L7.74933334,12.24 L9.82133334,10.2746667 L14.36,14.6666667 L14.36,0 L17.64,0 Z M6.66666666,28 L25.3333333,28 C25.8097361,27.9999271 26.2499816,28.254043 26.488204,28.6666077 C26.7264264,29.0791725 26.7264264,29.5874942 26.488204,30.0000589 C26.2499816,30.4126236 25.8097361,30.6667396 25.3333333,30.6666667 L6.66666666,30.6666667 C6.19026392,30.6667396 5.75001843,30.4126236 5.51179601,30.0000589 C5.27357358,29.5874942 5.27357358,29.0791725 5.51179601,28.6666077 C5.75001843,28.254043 6.19026392,27.9999271 6.66666666,28 L6.66666666,28 Z" id="形状"></path>
                            </g>
                        </g>
                    </g>
                </g>
            </g>
        </g>
    </g>
</svg>