<?xml version="1.0" encoding="UTF-8"?>
<svg width="32px" height="32px" viewBox="0 0 32 32" version="1.1" xmlns="http://www.w3.org/2000/svg" xmlns:xlink="http://www.w3.org/1999/xlink">
    <title>icon_leijixiaoshoue</title>
    <g id="门店管理系统" stroke="none" stroke-width="1" fill="none" fill-rule="evenodd">
        <g id="商品管理-普通商品管理" transform="translate(-1200.000000, -154.000000)">
            <g id="group" transform="translate(252.000000, 98.000000)">
                <g id="销售额" transform="translate(780.000000, 0.000000)">
                    <g id="icon_leijixiaoshoue" transform="translate(168.000000, 56.000000)">
                        <rect id="矩形" fill-opacity="0.198172189" fill="#096DD9" x="0" y="0" width="32" height="32" rx="8"></rect>
                        <g id="销售趋势" transform="translate(4.000000, 4.000000)" fill-rule="nonzero">
                            <rect id="矩形" fill="#000000" opacity="0" x="0" y="0" width="24" height="24"></rect>
                            <path d="M3.45,15 L1.2,15 C0.45,15 0,15.6 0,16.2 L0,21.15 C0,21.9 0.45,22.5 1.2,22.5 L3.45,22.5 C4.05,22.5 4.5,21.9 4.5,21.3 L4.5,16.2 C4.5,15.6 4.05,15 3.45,15 Z M3,20.55 C3,20.85 2.7,21 2.25,21 C1.8,21 1.5,20.85 1.5,20.55 L1.5,16.95 C1.5,16.65 1.8,16.5 2.25,16.5 C2.7,16.5 3,16.65 3,16.95 L3,20.55 Z M9.45,10.5 L7.2,10.5 C6.45,10.5 6,11.1 6,11.7 L6,21.15 C6,21.9 6.45,22.5 7.2,22.5 L9.45,22.5 C10.05,22.5 10.65,21.9 10.65,21.3 L10.65,11.7 C10.5,11.1 10.05,10.5 9.45,10.5 Z M9,20.55 C9,20.85 8.7,21 8.25,21 C7.8,21 7.5,20.85 7.5,20.55 L7.5,12.45 C7.5,12.15 7.8,12 8.25,12 C8.7,12 9,12.15 9,12.45 L9,20.55 Z M21.3,9 L19.05,9 C18.3,9 17.85,9.6 17.85,10.2 L17.85,21.15 C17.85,21.9 18.3,22.5 19.05,22.5 L21.3,22.5 C21.9,22.5 22.5,21.9 22.5,21.3 L22.5,10.2 C22.35,9.6 21.9,9 21.3,9 Z M20.85,20.55 C20.85,20.85 20.55,21 20.1,21 C19.65,21 19.35,20.85 19.35,20.55 L19.35,10.95 C19.35,10.65 19.65,10.5 20.1,10.5 C20.55,10.5 20.85,10.65 20.85,10.95 L20.85,20.55 Z M15.45,13.5 L13.2,13.5 C12.45,13.5 12,14.1 12,14.7 L12,21.15 C12,21.9 12.45,22.5 13.2,22.5 L15.45,22.5 C16.05,22.5 16.5,21.9 16.5,21.3 L16.5,14.7 C16.5,14.1 16.05,13.5 15.45,13.5 Z M15,20.55 C15,20.85 14.7,21 14.25,21 C13.8,21 13.5,20.85 13.5,20.55 L13.5,15.45 C13.5,15.15 13.8,15 14.25,15 C14.7,15 15,15.15 15,15.45 L15,20.55 Z M1.5,13.8 L8.25,7.95 L13.05,11.25 C13.5,11.85 14.1,11.4 14.1,11.25 L21,3.9 L21,5.25 C21,5.7 21.3,6 21.75,6 C22.2,6 22.5,5.7 22.5,5.25 L22.5,2.25 C22.5,1.8 22.2,1.5 21.75,1.5 L18.75,1.5 C18.3,1.5 18,1.8 18,2.25 C18,2.7 18.3,3 18.75,3 L19.8,3 L13.5,9.6 L8.7,6.3 C8.7,6.3 8.7,6.3 8.7,6.3 C8.4,6 7.95,6 7.65,6.3 L0.45,12.6 C0.15,12.9 0.15,13.5 0.45,13.8 C0.75,13.95 1.2,13.95 1.5,13.8 Z" id="形状" fill="#096DD9"></path>
                        </g>
                    </g>
                </g>
            </g>
        </g>
    </g>
</svg>