<?xml version="1.0" encoding="UTF-8"?>
<svg width="40px" height="40px" viewBox="0 0 40 40" version="1.1" xmlns="http://www.w3.org/2000/svg" xmlns:xlink="http://www.w3.org/1999/xlink">
    <title>icon_addgongyingshang</title>
    <g id="门店管理系统" stroke="none" stroke-width="1" fill="none" fill-rule="evenodd">
        <g id="供应管理-平台供应商" transform="translate(-268.000000, -106.000000)">
            <g id="group" transform="translate(252.000000, 98.000000)">
                <g id="icon_addgongyingshang" transform="translate(16.000000, 8.000000)">
                    <rect id="bg" fill="#01489C" x="0" y="0" width="40" height="40" rx="2"></rect>
                    <g id="Icon-xinzengkehu" transform="translate(4.000000, 4.000000)" fill="#FFFFFF" fill-rule="nonzero">
                        <g id="编组">
                            <rect id="矩形" opacity="0" x="0" y="0" width="32" height="32"></rect>
                            <path d="M23.4666667,16 C19.7333333,16 16.8,18.9333333 16.8,22.6666667 C16.8,26.4 19.7333333,29.3333333 23.4666667,29.3333333 C27.2,29.3333333 30.1333333,26.4 30.1333333,22.6666667 C30.1333333,18.9333333 27.2,16 23.4666667,16 Z M27.2,23.6 L24.4,23.6 L24.4,26.4 L22.5333333,26.4 L22.5333333,23.6 L19.7333333,23.6 L19.7333333,21.7333333 L22.5333333,21.7333333 L22.5333333,18.9333333 L24.4,18.9333333 L24.4,21.7333333 L27.2,21.7333333 L27.2,23.6 Z M15.4666667,22.6666667 C15.4666667,21.3333333 15.8666667,20 16.4,18.9333333 C16.2666667,18.8 16.1333333,18.6666667 16.1333333,18.5333333 C16,18.2666667 15.8666667,18 15.8666667,17.7333333 L15.8666667,16.9333333 C16,16.5333333 16.1333333,16.2666667 16.2666667,16 C16.5333333,15.8666667 16.8,15.6 17.0666667,15.3333333 C17.2,15.2 17.3333333,15.0666667 17.4666667,14.8 C17.6,14.5333333 17.7333333,14.4 17.7333333,14.1333333 C17.8666667,13.8666667 17.8666667,13.6 18,13.3333333 C18.1333333,13.3333333 18.4,13.2 18.5333333,13.0666667 C18.6666667,12.9333333 18.8,12.8 18.9333333,12.5333333 C19.0666667,12.2666667 19.0666667,12 19.2,11.7333333 L19.2,11.0666667 C19.2,10.9333333 19.0666667,10.6666667 19.0666667,10.6666667 C18.9333333,10.5333333 18.9333333,10.4 18.8,10.4 C18.8,9.73333334 18.8,9.06666666 18.6666667,8.4 C18.5333333,7.86666666 18.4,7.2 18.2666667,6.53333334 C18,5.86666669 17.7333333,5.33333334 17.3333333,4.8 C17.2,4.53333334 16.9333333,4.26666666 16.5333333,4.13333334 C16.1333333,3.86666669 15.8666667,3.73333334 15.3333333,3.46666666 C14.9333333,3.33333331 14.4,3.2 14,3.06666666 C13.3333333,2.66666666 12.8,2.66666666 12.4,2.66666666 C12,2.66666666 11.6,2.66666666 11.0666667,2.8 C10.6666667,2.8 10.2666667,2.93333334 9.73333334,3.2 C9.46666669,3.33333334 8.93333334,3.46666666 8.53333334,3.73333334 C8.13333334,4.13333334 7.86666669,4.53333334 7.46666666,4.93333334 C7.06666666,5.46666669 6.8,6 6.66666666,6.66666666 C6.53333331,7.2 6.4,7.86666666 6.26666666,8.4 C6.13333331,9.06666666 6.13333331,9.73333334 6.13333334,10.2666667 C6,10.4 5.86666669,10.6666667 5.86666666,10.8 C5.73333331,10.9333333 5.73333331,11.2 5.73333334,11.4666667 C5.73333338,11.7333333 5.73333334,12 5.86666666,12.2666667 C6,12.5333333 6,12.8 6.13333334,12.9333333 L6.53333334,13.3333333 L6.8,13.3333333 C6.93333334,13.6 6.93333334,13.8666667 7.06666666,14.1333333 C7.2,14.4 7.2,14.5333333 7.33333334,14.8 C7.46666669,15.0666667 7.6,15.2 7.73333334,15.3333333 C8,15.6 8.26666669,15.8666667 8.53333334,16 C8.8,16.2666667 8.93333334,16.5333333 8.93333334,16.9333333 L8.93333334,17.6 C8.93333334,17.8666667 8.93333334,18 8.8,18.2666667 C8.66666666,18.5333333 8.53333334,18.6666667 8.4,18.9333333 C8.26666666,19.2 7.86666666,19.3333333 7.6,19.6 C7.06666666,19.8666667 6.53333334,20.1333333 6,20.2666667 C5.33333334,20.4 4.8,20.5333333 4.26666666,20.8 C3.73333331,20.9333333 3.2,21.2 2.8,21.6 C2.4,21.8666667 2.13333334,22.4 2,23.0666667 C1.86666666,24.1333333 1.73333334,25.0666667 1.86666666,25.7333333 C1.99999997,26.4 2.13333331,26.8 2.26666666,26.9333333 C2.4,27.0666667 2.66666666,27.0666667 3.06666666,27.2 C3.46666666,27.3333333 4,27.3333333 4.53333334,27.4666667 C5.06666669,27.6 5.73333334,27.6 6.4,27.7333333 C7.06666666,27.8666667 7.86666666,27.8666667 8.53333334,28 C9.2,28 10,28.1333333 10.6666667,28.1333333 L14.1333333,28.1333333 C14.8,28.1333333 15.6,28 16.2666667,28 C16.6666667,28 16.9333333,27.8666667 17.3333333,27.8666667 C16.2666667,26.4 15.4666667,24.5333333 15.4666667,22.6666667 Z" id="形状"></path>
                        </g>
                    </g>
                </g>
            </g>
        </g>
    </g>
</svg>