<?xml version="1.0" encoding="UTF-8"?>
<svg width="32px" height="32px" viewBox="0 0 32 32" version="1.1" xmlns="http://www.w3.org/2000/svg" xmlns:xlink="http://www.w3.org/1999/xlink">
    <title>icon_jinxingzhong</title>
    <g id="门店管理系统" stroke="none" stroke-width="1" fill="none" fill-rule="evenodd">
        <g id="工单管理" transform="translate(-920.000000, -154.000000)">
            <g id="group" transform="translate(252.000000, 98.000000)">
                <g id="进行中" transform="translate(568.000000, 0.000000)">
                    <g id="icon_jinxingzhong" transform="translate(100.000000, 56.000000)">
                        <rect id="矩形" fill-opacity="0.197608788" fill="#FFA928" x="0" y="0" width="32" height="32" rx="8"></rect>
                        <g id="进行中" transform="translate(5.000000, 4.000000)" fill-rule="nonzero">
                            <rect id="矩形" fill="#000000" opacity="0" x="0" y="0" width="24" height="24"></rect>
                            <path d="M16.5030469,13.5025781 C17.5047656,13.5025781 18.4464844,13.8925781 19.1547656,14.6008594 C19.8630469,15.3091406 20.2530469,16.2508594 20.2530469,17.2525781 C20.2530469,18.2542969 19.8630469,19.1960156 19.1547656,19.9042969 C18.4464844,20.6125781 17.5047656,21.0025781 16.5030469,21.0025781 C15.5013281,21.0025781 14.5598437,20.6123438 13.8515625,19.9040625 C13.1432812,19.1957813 12.7532812,18.2540625 12.7532812,17.2523438 C12.7532812,16.250625 13.1432812,15.3089063 13.8515625,14.600625 C14.5598437,13.8925781 15.5013281,13.5025781 16.5030469,13.5025781 M16.5030469,12.0025781 C13.6035937,12.0025781 11.2530469,14.353125 11.2530469,17.2525781 C11.2530469,20.1520313 13.6035937,22.5025781 16.5030469,22.5025781 C19.4025,22.5025781 21.7530469,20.1520313 21.7530469,17.2525781 C21.7530469,14.353125 19.4025,12.0025781 16.5030469,12.0025781 Z M15.0236719,5.23828125 L6.53929687,5.23828125 C6.12515625,5.23828125 5.78929687,5.57414063 5.78929687,5.98828125 C5.78929687,6.40242188 6.12515625,6.73828125 6.53929687,6.73828125 L15.0236719,6.73828125 C15.4378125,6.73828125 15.7736719,6.40242188 15.7736719,5.98828125 C15.7736719,5.57414063 15.4378125,5.23828125 15.0236719,5.23828125 Z M12.7211719,9.39257813 L6.53929687,9.39257813 C6.12515625,9.39257813 5.78929687,9.7284375 5.78929687,10.1425781 C5.78929687,10.5567188 6.12515625,10.8925781 6.53929687,10.8925781 L12.7211719,10.8925781 C13.1353125,10.8925781 13.4711719,10.5567188 13.4711719,10.1425781 C13.4711719,9.7284375 13.1353125,9.39257813 12.7211719,9.39257813 Z M8.66625,13.546875 L6.53929687,13.546875 C6.12515625,13.546875 5.78929687,13.8827344 5.78929687,14.296875 C5.78929687,14.7110156 6.12515625,15.046875 6.53929687,15.046875 L8.66625,15.046875 C9.08039062,15.046875 9.41625,14.7110156 9.41625,14.296875 C9.41625,13.8827344 9.08039062,13.546875 8.66625,13.546875 Z" id="形状" fill-opacity="0.502079464" fill="#FFA928"></path>
                            <path d="M9.64265625,22.5 L4.99265625,22.5 C3.54515625,22.5 2.36765625,21.3225 2.36765625,19.875 L2.36765625,4.125 C2.36765625,2.6775 3.54515625,1.5 4.99265625,1.5 L16.5703125,1.5 C18.0178125,1.5 19.1953125,2.6775 19.1953125,4.125 L19.1953125,9.80179688 C19.1953125,10.2159375 18.8594531,10.5517969 18.4453125,10.5517969 C18.0311719,10.5517969 17.6953125,10.2159375 17.6953125,9.80179688 L17.6953125,4.125 C17.6953125,3.50460937 17.1907031,3 16.5703125,3 L4.99265625,3 C4.37226563,3 3.86765625,3.50460937 3.86765625,4.125 L3.86765625,19.875 C3.86765625,20.4953906 4.37226563,21 4.99265625,21 L9.64265625,21 C10.0567969,21 10.3926562,21.3358594 10.3926562,21.75 C10.3926562,22.1641406 10.0567969,22.5 9.64265625,22.5 Z" id="路径" fill="#FFA928"></path>
                            <path d="M18.609375,18.84375 L16.4296875,18.84375 C15.7577344,18.84375 15.2109375,18.2969531 15.2109375,17.625 L15.2109375,15.375 C15.2109375,14.9608594 15.5467969,14.625 15.9609375,14.625 C16.3750781,14.625 16.7109375,14.9608594 16.7109375,15.375 L16.7109375,17.34375 L18.609375,17.34375 C19.0235156,17.34375 19.359375,17.6796094 19.359375,18.09375 C19.359375,18.5078906 19.0235156,18.84375 18.609375,18.84375 Z" id="路径" fill-opacity="0.499941953" fill="#FFA928"></path>
                        </g>
                    </g>
                </g>
            </g>
        </g>
    </g>
</svg>