<?xml version="1.0" encoding="UTF-8"?>
<svg width="32px" height="32px" viewBox="0 0 32 32" version="1.1" xmlns="http://www.w3.org/2000/svg" xmlns:xlink="http://www.w3.org/1999/xlink">
    <title>icon_leijicaigoue</title>
    <g id="门店管理系统" stroke="none" stroke-width="1" fill="none" fill-rule="evenodd">
        <g id="商品管理-普通商品管理" transform="translate(-1380.000000, -154.000000)" fill="#FFA928">
            <g id="group" transform="translate(252.000000, 98.000000)">
                <g id="采购额" transform="translate(1020.000000, 0.000000)">
                    <g id="icon_leijicaigoue" transform="translate(108.000000, 56.000000)">
                        <rect id="矩形" fill-opacity="0.199084729" x="0" y="0" width="32" height="32" rx="8"></rect>
                        <g id="采购" transform="translate(4.000000, 4.000000)" fill-rule="nonzero">
                            <path d="M16.4641292,18.7826087 L6.93587082,18.7826087 C6.52987313,18.7826087 6.2,18.3148426 6.2,17.7391304 C6.2,17.1634183 6.52987313,16.6956522 6.93587082,16.6956522 L16.4641292,16.6956522 C16.8701269,16.6956522 17.2,17.1634183 17.2,17.7391304 C17.2,18.3148426 16.8701269,18.7826087 16.4641292,18.7826087 Z" id="路径"></path>
                            <path d="M19.2311462,24 L4.1820243,24 C1.98458614,24 0.2,22.1517241 0.2,19.8758621 L0.2,9.32413793 C0.2,8.63448276 0.532945175,8 1.06565746,7.6 L10.5298942,0.83194968 C11.2256746,0.33438428 12.1608603,0.33438428 12.8566407,0.83194968 L22.3208774,7.6 L22.3208774,7.6 C22.8669075,7.9862069 23.1999268,8.63448276 23.1999268,9.32413793 L23.1999268,19.8758621 C23.2131705,22.1517241 21.4285844,24 19.2311462,24 Z M11.7065853,1.93103448 L1.94463272,8.91034483 C1.81145465,9.00689655 1.73154781,9.15862069 1.73154781,9.32413793 L1.73154781,19.8758621 C1.73154781,21.2689655 2.82360798,22.4137931 4.1820243,22.4137931 L19.2311462,22.4137931 C20.5762447,22.4137931 21.6683049,21.2827586 21.6683049,19.8758621 L21.6683049,9.32413793 C21.6683049,9.15862069 21.5883981,9.00689655 21.45522,8.91034483 L11.7065853,1.93103448 Z" id="形状"></path>
                            <path d="M14.986012,11.7312707 C14.6877258,11.4213711 14.220843,11.4213711 13.9225567,11.7312707 L12.4570635,12.9843428 L12.4570635,7.04235544 C12.4570635,6.61119082 12.1198703,6.26086957 11.7048634,6.26086957 C11.2898564,6.26086957 10.9526633,6.61119082 10.9526633,7.04235544 L10.9526633,12.9978167 L9.48716999,11.8794835 C9.18888374,11.5695839 8.72200093,11.5695839 8.42371468,11.8794835 C8.12542844,12.1893831 8.12542844,12.6744433 8.42371468,12.9843428 C8.42371468,12.9843428 11.056415,15.3018527 11.0953219,15.3288004 C11.2639185,15.5039611 11.458453,15.6521739 11.7048634,15.6521739 C11.9512737,15.6521739 12.1458082,15.5039611 12.3144048,15.3288004 C12.3533117,15.3018527 14.986012,12.8496039 14.986012,12.8496039 C15.2713293,12.5262304 15.2713293,12.0411702 14.986012,11.7312707 L14.986012,11.7312707 Z" id="路径"></path>
                        </g>
                    </g>
                </g>
            </g>
        </g>
    </g>
</svg>