<?xml version="1.0" encoding="UTF-8"?>
<svg width="56px" height="56px" viewBox="0 0 56 56" version="1.1" xmlns="http://www.w3.org/2000/svg" xmlns:xlink="http://www.w3.org/1999/xlink">
    <title>icon_dingdan</title>
    <g id="门店管理系统" stroke="none" stroke-width="1" fill="none" fill-rule="evenodd">
        <g id="首页" transform="translate(-272.000000, -146.000000)" fill-rule="nonzero">
            <g id="工具栏" transform="translate(252.000000, 98.000000)">
                <g id="icon_工单" transform="translate(0.000000, 44.000000)">
                    <g id="icon_dingdan" transform="translate(20.000000, 4.000000)">
                        <rect id="矩形" fill="#000000" opacity="0" x="0" y="0" width="56" height="56"></rect>
                        <path d="M40,6 C42.8404537,6 45.1428571,8.31890772 45.1428571,11.1794464 L45.1428571,18.5714286 L34.8571429,18.5714286 L34.8571429,11.1794464 C34.8571429,8.31890772 37.1596691,6 40,6 Z" id="路径" fill="#DFECFD"></path>
                        <path d="M44.238835,22 L38.761165,22 C36.6872233,22 35,20.288896 35,18.1856 L35,12.592 C35,8.957184 37.9159126,6 41.5,6 C45.0840874,6 48,8.957184 48,12.592 L48,18.1856 C48,20.288896 46.3127767,22 44.238835,22 Z M39,18 L44,18 L44,12.6461538 C44,11.1870769 42.8784884,10 41.5,10 C40.1215116,10 39,11.1870769 39,12.6461538 L39,18 Z" id="形状" fill="#01489C"></path>
                        <path d="M37.0972465,11.6966898 C37.0972465,19.6911305 37.0785832,39.151148 37.0785832,39.151148 C37.0785832,41.6742354 37.0886715,43.7142857 37.0886715,43.7142857 L22.9650436,38.3586495 L9.71771116,43.7142857 C9.71367584,39.930663 9.71771116,41.6737312 9.71771116,39.151148 L9.71771116,11.7411867 C9.71771116,11.7411867 9.42590692,7.16998155 14.2288231,7.14993903 C19.0317393,7.12989652 41.7142857,7.15876278 41.7142857,7.15876278" id="路径" fill="#01489C"></path>
                        <path d="M37.1884182,46 C36.967205,46 36.7450055,45.9598907 36.5325471,45.8780477 L23.3998368,40.8297728 L11.1181929,45.8631785 C10.5483814,46.0967701 9.90127624,46.0282324 9.39144733,45.6802915 C8.88161843,45.3323506 8.57569076,44.7504758 8.57510511,44.1276076 C8.57263897,41.8557464 8.5731322,41.5902253 8.57399535,41.1818851 C8.57448858,40.9158642 8.57510511,40.588992 8.57510511,39.6023781 L8.57510511,12.476616 C8.55500604,11.9664406 8.56006163,9.62523157 10.1925257,7.85479925 C10.9645521,7.01750184 12.3954089,6.01726818 14.8281367,6.00689724 C19.475955,5.98740486 41.4923327,6.01539391 41.7142857,6.01564382 L41.7094767,9.76417721 C41.4876471,9.76380236 19.4812573,9.7355634 14.8436734,9.75543063 C13.9378587,9.75917916 13.300607,9.97459488 12.8956662,10.413923 C12.2506462,11.1133993 12.2700054,12.3014345 12.2707453,12.31293 C12.2732114,12.3526645 12.2744445,12.3925239 12.2744445,12.4323833 L12.2744445,39.602503 C12.2744445,40.5936152 12.273828,40.9219868 12.2733347,41.1891322 L12.2730881,41.3465706 L22.6849017,37.0794901 C23.1167942,36.902334 23.5987838,36.8970232 24.0343757,37.064621 L35.3307951,41.407047 C35.3298087,40.8530138 35.3291922,40.2427525 35.3291922,39.602628 C35.3294388,39.4078292 35.3474416,20.2213359 35.3474416,12.3882755 L39.0466577,12.3882755 C39.0466577,20.2230852 39.0286548,39.4115777 39.0284082,39.6043773 C39.0284082,42.0696627 39.0381495,44.0963698 39.0382728,44.1164869 C39.0406018,44.6151864 38.8467396,45.0942721 38.4995753,45.4477531 C38.1524111,45.801234 37.6805621,46 37.1884182,46 Z" id="路径" fill="#01489C"></path>
                        <path d="M21.8992975,30 C21.4193591,30 20.9390408,29.8215035 20.5693996,29.4636389 C19.820493,28.7385349 19.8088428,27.5514444 20.5433132,26.8122158 L28.1729413,19.1335636 C28.9075383,18.39421 30.110297,18.3827104 30.8590769,19.1078143 C31.6081101,19.8329183 31.6197603,21.0200089 30.8851633,21.7592374 L23.2555352,29.4377646 C22.8986996,29.7979415 22.4096676,30.0006716 21.8992975,30 L21.8992975,30 Z" id="路径" fill="#FFFFFF"></path>
                        <path d="M21.6244998,30 C21.1635805,30.000612 20.720055,29.8194002 20.3856233,29.4938288 L17.1359022,26.3395569 C16.4120318,25.6371402 16.380167,24.4652115 17.0645973,23.7223111 C17.7489074,22.9791638 18.8906265,22.9465794 19.6143767,23.6491195 L22.8640978,26.803268 C23.5879682,27.5058081 23.619833,28.6776134 22.9354027,29.4205138 C22.594999,29.7909913 22.1206277,30.0006871 21.6244998,30 L21.6244998,30 Z" id="路径" fill="#FFFFFF"></path>
                    </g>
                </g>
            </g>
        </g>
    </g>
</svg>