<?xml version="1.0" encoding="UTF-8"?>
<svg width="56px" height="56px" viewBox="0 0 56 56" version="1.1" xmlns="http://www.w3.org/2000/svg" xmlns:xlink="http://www.w3.org/1999/xlink">
    <title>icon_add shop</title>
    <g id="门店管理系统" stroke="none" stroke-width="1" fill="none" fill-rule="evenodd">
        <g id="首页" transform="translate(-512.000000, -146.000000)" fill-rule="nonzero">
            <g id="工具栏" transform="translate(252.000000, 98.000000)">
                <g id="icon_商品" transform="translate(240.000000, 44.000000)">
                    <g id="icon_add-shop" transform="translate(20.000000, 4.000000)">
                        <rect id="矩形" fill="#000000" opacity="0" x="0" y="0" width="56" height="56"></rect>
                        <path d="M40.1328414,39.8025299 C40.0049201,40.1271961 39.9409594,40.4666199 39.9409594,40.8011244 C39.9409594,41.5242446 40.2164822,42.2424456 40.7675277,42.7983135 L41.697417,43.7280394 L41.7515376,43.7723121 C42.292743,44.2937457 42.99139,44.5495433 43.694957,44.5495433 C44.4083641,44.5495433 45.1365314,44.2789881 45.6777368,43.7280394 L45.6826569,43.7280394 L51.1783518,38.2333099 L51.2275523,38.1841181 C51.7441575,37.6380886 52,36.9346452 52,36.2361209 C52,35.5130007 51.7244773,34.7997189 51.1783518,34.2536894 L51.1734318,34.2536894 L51.1783518,34.2389319 L50.2484625,33.3141251 C49.7023371,32.7680956 48.9790898,32.4975405 48.2509225,32.4975405 C47.9114391,32.4975405 47.5670357,32.5565707 47.2423124,32.6795503 L41.3185732,26.7568517 C41.4464945,26.4321855 41.5104551,26.0878426 41.5104551,25.7484189 C41.5104551,25.0252987 41.2300124,24.3070977 40.6838868,23.7512298 L39.7539976,22.8264231 C39.2078721,22.2803936 38.4846249,22 37.7662977,22 C37.0430504,22 36.3148832,22.2754743 35.7687577,22.8264231 L30.2730627,28.3260717 L30.2238623,28.3752635 C29.7121772,28.921293 29.4514145,29.6247365 29.4514145,30.3134224 C29.4514145,31.0414617 29.7269373,31.7596627 30.2730627,32.3106114 L31.202952,33.2403373 L31.2570726,33.28461 C31.803198,33.8109628 32.501845,34.0667604 33.200492,34.0667604 C33.5399754,34.0667604 33.8794588,33.9978918 34.2091021,33.8798313 L34.7945879,34.4701335 L24.9790898,44.2888264 C24.3296433,44.9381588 24,45.7990162 24,46.6500351 C24,47.5158117 24.3247233,48.3717498 24.9790898,49.0210822 C25.6383764,49.6753338 26.4944649,50 27.3505535,50 C28.2115621,50 29.0676507,49.6753338 29.7220172,49.0210822 L39.5325953,39.2073085 L40.1328414,39.8025299 Z M51.4004999,47 L38.5945017,47 C37.7197751,47 37,47.6692668 37,48.4929797 L37,48.5070203 C37,49.326053 37.7147767,50 38.5945017,50 L51.4054983,50 C52.2802249,50 53,49.3307332 53,48.5070203 L53,48.4929797 C52.9950016,47.6692668 52.2802249,47 51.4004999,47 Z M28.2837857,36.0721154 L28.2113116,36.0129808 L28.0953531,35.8947116 L27.1821799,34.9633414 L27.1773483,34.9584135 L27.1725167,34.9534856 C26.0709109,33.8250001 25.4669603,32.3219952 25.4669603,30.7253606 C25.4669603,29.1977164 26.0370897,27.7390625 27.071053,26.6204327 L27.1000426,26.5859375 L27.1290322,26.5563702 L27.1725166,26.5120193 L32.5694187,21.0026443 C33.1250532,20.4359376 33.7821514,19.9924279 34.5117237,19.691827 C35.2171379,19.4010818 35.9563734,19.2532452 36.7149353,19.2532452 C36.8115674,19.2532452 36.9081994,19.2532452 37,19.2581731 L37,13.2905048 L37,12.9061298 C37,11.0039663 35.4877078,9.46153849 33.6227086,9.46153849 L29.9023732,9.46153849 C29.5255081,4.17884619 25.191559,0 19.915447,0 C14.639335,0 10.3102175,4.17884619 9.92852075,9.46153849 L6.35796511,9.46153849 C4.51229219,9.46153844 3,11.0039663 3,12.9061298 L3,37.1710337 L3,37.5554087 C3,39.4575721 4.51229219,41 6.37729144,41 L11.8080148,41 L23.4521813,41 L28.2837857,36.0721154 Z M32,18 C32,19.6546875 30.6546875,21 29,21 C27.3453125,21 26,19.6546875 26,18 C26,16.3453125 27.3453125,15 29,15 C30.6546875,15 32,16.3453125 32,18 Z M20,3 C23.627809,3 26.6264045,5.63437499 27,9 L13,9 C13.3785113,5.6296875 16.372191,3 20,3 Z M12,21 C10.3453125,21 9,19.6546875 9,18 C9,16.3453125 10.3453125,15 12,15 C13.6546875,15 15,16.3453125 15,18 C15,19.659375 13.659375,21 12,21 Z" id="形状" fill="#01489C"></path>
                    </g>
                </g>
            </g>
        </g>
    </g>
</svg>