<?xml version="1.0" encoding="UTF-8"?>
<svg width="56px" height="56px" viewBox="0 0 56 56" version="1.1" xmlns="http://www.w3.org/2000/svg" xmlns:xlink="http://www.w3.org/1999/xlink">
    <title>icon_daoru</title>
    <g id="门店管理系统" stroke="none" stroke-width="1" fill="none" fill-rule="evenodd">
        <g id="首页" transform="translate(-632.000000, -150.000000)" fill-rule="nonzero">
            <g id="工具栏" transform="translate(252.000000, 98.000000)">
                <g id="icon_导入" transform="translate(360.000000, 44.000000)">
                    <g id="icon_daoru" transform="translate(20.000000, 8.000000)">
                        <rect id="矩形" fill="#000000" opacity="0" x="0" y="0" width="56" height="56"></rect>
                        <path d="M49.1971607,7.00885393 C50.2189079,7.98473751 50.81899,9.2113258 51,10.681367 L51,37.5010721 C50.9408735,39.1228829 50.3833211,40.4385646 49.3320106,41.4439733 C48.2807001,42.449382 47.0048126,42.966849 45.501755,43 L13.4987637,43 C11.8769344,42.9404317 10.5616293,42.3835979 9.55596029,41.3320886 C8.55029129,40.2805792 8.02956325,39.0042643 8,37.5010721 L8,5.49892789 C8.05912649,3.87659913 8.61667893,2.56143542 9.66798943,1.55602669 C10.7192999,0.550617968 11.995706,0.0326330498 13.4987637,0 L24.1793938,0 C24.9309226,0.0295251403 25.672597,0.234129183 26.4111595,0.610186234 C27.1460914,0.985725299 27.7394309,1.46071747 28.1911781,2.03101886 L29.9483759,4.05841183 C30.2185943,4.51009468 30.5251185,4.86284241 30.871579,5.11665502 C31.2175208,5.37409353 31.6760105,5.49944588 32.2460106,5.49944588 L45.227906,5.49944588 C46.8533658,5.52845303 48.1748948,6.03297034 49.1971607,7.00885393 Z M39.8372015,22.796531 C39.5456002,22.0525383 38.9096556,21.7288662 37.9177039,21.8295418 L33.9813392,21.8295418 L33.9813392,15.9823027 C33.9813392,14.6619421 33.3154739,14 31.986786,14 L28.095049,14 C27.5823377,14.0337263 27.1294681,14.2456485 26.7404973,14.6357664 C26.3474694,15.0263878 26.1344736,15.4764077 26.1004957,15.9823027 L26.1004957,21.8290384 L21.8532586,21.8290384 C21.5124654,21.8290384 21.1944931,21.907062 20.9064417,22.0595856 C20.6148403,22.2121091 20.3861235,22.4577576 20.2142054,22.7960276 C20.0422874,23.1342976 19.9748388,23.4655204 20.0083095,23.7886891 C20.0417803,24.1123611 20.2142054,24.4249589 20.5210208,24.7295026 L28.7091868,33.2209865 C28.8811048,33.392135 29.0682368,33.5335843 29.2705828,33.6523815 C29.4764787,33.7711787 29.7305522,33.8492023 30.0378747,33.8829286 C30.34469,34.0203508 30.5992707,34.0354522 30.8051666,33.9352799 C31.0110625,33.8346043 31.1981945,33.6971821 31.3665626,33.5295572 L39.5527,24.7335296 C40.0314334,24.1873645 40.1252529,23.5400203 39.8372015,22.796531 Z" id="形状" fill="#01489C"></path>
                    </g>
                </g>
            </g>
        </g>
    </g>
</svg>