<?xml version="1.0" encoding="UTF-8"?>
<svg width="56px" height="56px" viewBox="0 0 56 56" version="1.1" xmlns="http://www.w3.org/2000/svg" xmlns:xlink="http://www.w3.org/1999/xlink">
    <title>icon_xiaoshoudan</title>
    <g id="门店管理系统" stroke="none" stroke-width="1" fill="none" fill-rule="evenodd">
        <g id="首页" transform="translate(-1352.000000, -150.000000)" fill-rule="nonzero">
            <g id="工具栏" transform="translate(252.000000, 98.000000)">
                <g id="icon_销售单" transform="translate(1080.000000, 44.000000)">
                    <g id="icon_xiaoshoudan" transform="translate(20.000000, 8.000000)">
                        <rect id="矩形" fill="#000000" opacity="0" x="0" y="0" width="56" height="56"></rect>
                        <path d="M46.091735,41.385662 L42.7013422,39.4267538 C44.1670704,34.9459326 42.0272793,29.9543442 37.6931984,27.9170796 C36.406112,27.310174 35.0028504,26.9970926 33.582849,27 C30.1982458,26.9937444 27.056169,28.7763777 25.2961781,31.7014001 C22.7978429,35.9297398 24.0140244,41.45241 28.0584017,44.2674337 C29.6787398,45.399611 31.6021935,46.0040889 33.5713756,46 C36.2733638,46 38.8261977,44.882676 40.6389966,42.9237677 L44.0752831,44.9087947 C45.0320898,45.3752792 46.182599,45.0266964 46.7285093,44.1049168 C47.2640311,43.1712888 46.9843495,41.9769476 46.091735,41.385662 L46.091735,41.385662 Z M33.4863257,43 C32.3365707,43 31.2039251,42.6912283 30.2081551,42.1122813 C28.7195313,41.2497273 27.6355084,39.8052243 27.2037358,38.108775 C26.7788715,36.4543231 27.0244703,34.6940127 27.8846919,33.2280763 C29.0795307,31.2199785 31.2093421,29.9963638 33.5034352,30 C34.6497683,30 35.7824139,30.3087799 36.7781839,30.8912356 C38.2838154,31.7754456 39.354867,33.1894798 39.7928689,34.8842156 C40.2206051,36.5508812 39.9810728,38.2842135 39.1187566,39.7719318 C37.9484702,41.7614043 35.7926795,43 33.4863257,43 L33.4863257,43 Z" id="形状" fill="#01489C"></path>
                        <path d="M35.0587377,23.659228 C36.7953302,23.659228 38.4589566,23.9600422 40,24.5186972 L40,10.3718335 C39.9935922,7.96106406 38.0050604,6.00787015 35.5490697,6 L31.4250274,6 L31.4308646,6.21486731 L31.4308646,9.58398673 C31.4244545,11.6477792 29.7216263,13.3192507 27.6191171,13.3255428 L20.3779642,13.3255428 C18.2754551,13.3192507 16.5726268,11.6477792 16.5662167,9.58398673 L16.5662167,6.21486731 L16.572054,6 L12.453849,6 C9.9967184,6.00629738 8.00641552,7.95994982 8,10.3718335 L8,39.6281665 C8.00641552,42.0400502 9.9967184,43.9937026 12.453849,44 L22.1962787,44 C19.9936862,39.6328836 20.2463963,34.4586203 22.8644879,30.318354 C25.4825795,26.1780878 30.0943243,23.6596721 35.0587377,23.659228 L35.0587377,23.659228 Z M13.5005146,17 L31.500924,17 C31.899003,17 32.2807356,17.1582782 32.5619494,17.4399362 C32.8431632,17.7215941 33.0007628,18.1034993 33,18.5014409 C33,19.3285303 32.3340628,20 31.500924,20 L13.5005146,20 C12.6718033,20 12,19.3284271 12,18.5 C12,17.6715729 12.6718033,17 13.5005146,17 L13.5005146,17 Z M16.4985591,36 L13.5014409,36 C12.672218,36 12,35.3284271 12,34.5 C12,33.6715729 12.672218,33 13.5014409,33 L16.4985591,33 C17.327782,33 18,33.6715729 18,34.5 C18,35.3284271 17.327782,36 16.4985591,36 L16.4985591,36 Z M19.4990397,28 L13.5009603,28 C12.6720028,28 12,27.3284271 12,26.5 C12,25.6715729 12.6720028,25 13.5009603,25 L19.4990397,25 C20.3279972,25 21,25.6715729 21,26.5 C21,27.3284271 20.3279972,28 19.4990397,28 Z" id="形状" fill="#01489C"></path>
                        <polygon id="路径" fill="#01489C" points="21.1337755 10.0625481 27.30927 10.0740481 27.323645 5.2670524 30.3998922 5.2699274 24.2416477 5.70973962e-05 18.0604033 5.24980241 21.1452755 5.25555241"></polygon>
                    </g>
                </g>
            </g>
        </g>
    </g>
</svg>