<?xml version="1.0" encoding="UTF-8"?>
<svg width="32px" height="32px" viewBox="0 0 32 32" version="1.1" xmlns="http://www.w3.org/2000/svg" xmlns:xlink="http://www.w3.org/1999/xlink">
    <title>icon_xiaoshouzongjiazhi</title>
    <g id="门店管理系统" stroke="none" stroke-width="1" fill="none" fill-rule="evenodd">
        <g id="商品管理-普通商品管理" transform="translate(-960.000000, -154.000000)">
            <g id="group" transform="translate(252.000000, 98.000000)">
                <g id="采购金额" transform="translate(540.000000, 0.000000)">
                    <g id="icon_xiaoshouzongjiazhi" transform="translate(168.000000, 56.000000)">
                        <rect id="矩形" fill-opacity="0.204859594" fill="#E23A3A" x="0" y="0" width="32" height="32" rx="8"></rect>
                        <g id="钱" transform="translate(4.000000, 4.000000)" fill-rule="nonzero">
                            <rect id="矩形" fill="#000000" opacity="0" x="0" y="0" width="24" height="24"></rect>
                            <path d="M16.125,9 C15.1768359,9 14.2837031,9.12529688 13.5,9.34626563 L13.5,4.5 C13.5,2.84313281 10.9815938,1.5 7.875,1.5 C4.76840625,1.5 2.25,2.84313281 2.25,4.5 L2.25,15.75 C2.25,17.4068438 4.76840625,18.75 7.875,18.75 C8.82311719,18.75 9.71636719,18.6248438 10.5,18.4038984 L10.5,19.5 C10.5,21.1568438 13.0184062,22.5 16.125,22.5 C19.2315937,22.5 21.75,21.1568438 21.75,19.5 L21.75,12 C21.75,10.3431328 19.2315937,9 16.125,9 Z M20.25,12 C20.25,12.8284219 18.4031719,13.5 16.125,13.5 C13.8468281,13.5 12,12.8284219 12,12 C12,11.1715781 13.8468281,10.5 16.125,10.5 C18.4031719,10.5 20.25,11.1715781 20.25,12 Z M7.875,3 C10.1531719,3 12,3.67157812 12,4.5 C12,5.32842188 10.1531719,6 7.875,6 C5.59682813,6 3.75,5.32842188 3.75,4.5 C3.75,3.67157812 5.59682813,3 7.875,3 Z M3.75,6.53932031 C4.7773125,7.13010938 6.2450625,7.5 7.875,7.5 C9.5049375,7.5 10.9726875,7.13010938 12,6.53932031 L12,8.25 C12,9.07842188 10.1531719,9.75 7.875,9.75 C5.59682813,9.75 3.75,9.07842188 3.75,8.25 L3.75,6.53932031 L3.75,6.53932031 Z M3.75,10.2893203 C4.7773125,10.8801094 6.2450625,11.25 7.875,11.25 C9.04073437,11.25 10.1236406,11.0608594 11.0217422,10.737 C10.6871484,11.1209063 10.5,11.5487578 10.5,12 L10.5,13.1569688 C9.78679688,13.3712109 8.87233594,13.5 7.875,13.5 C5.59682813,13.5 3.75,12.8284219 3.75,12 L3.75,10.2893203 L3.75,10.2893203 Z M7.875,17.25 C5.59682813,17.25 3.75,16.5784219 3.75,15.75 L3.75,14.0393203 C4.7773125,14.6301094 6.2450625,15 7.875,15 C8.82311719,15 9.71636719,14.8748438 10.5,14.6538984 L10.5,16.9069922 C9.78679688,17.1212109 8.87233594,17.25 7.875,17.25 Z M16.125,21 C13.8468281,21 12,20.3284219 12,19.5 L12,17.7893203 C13.0273125,18.3801094 14.4950625,18.75 16.125,18.75 C17.7549375,18.75 19.2226875,18.3801094 20.25,17.7893203 L20.25,19.5 C20.25,20.3284219 18.4031719,21 16.125,21 Z M16.125,17.25 C13.8468281,17.25 12,16.5784219 12,15.75 L12,14.0393203 C13.0273125,14.6301094 14.4950625,15 16.125,15 C17.7549375,15 19.2226875,14.6301094 20.25,14.0393203 L20.25,15.75 C20.25,16.5784219 18.4031719,17.25 16.125,17.25 Z" id="形状" fill="#E23A3A"></path>
                        </g>
                    </g>
                </g>
            </g>
        </g>
    </g>
</svg>