<?xml version="1.0" encoding="UTF-8"?>
<svg width="32px" height="32px" viewBox="0 0 32 32" version="1.1" xmlns="http://www.w3.org/2000/svg" xmlns:xlink="http://www.w3.org/1999/xlink">
    <title>icon_guazhangjine</title>
    <g id="门店管理系统" stroke="none" stroke-width="1" fill="none" fill-rule="evenodd">
        <g id="供应管理-平台供应商" transform="translate(-1380.000000, -154.000000)" fill="#096DD9">
            <g id="group" transform="translate(252.000000, 98.000000)">
                <g id="挂账金额" transform="translate(900.000000, 0.000000)">
                    <g id="icon_guazhangjine" transform="translate(228.000000, 56.000000)">
                        <rect id="矩形" fill-opacity="0.198172189" x="0" y="0" width="32" height="32" rx="8"></rect>
                        <g id="挂账管理" transform="translate(6.000000, 4.000000)" fill-rule="nonzero">
                            <path d="M9.20174907,18.2614388 L9.20174907,16.9134301 L7.64075826,16.9134301 C7.30310394,16.9134301 7.13427678,16.7546371 7.13427678,16.4353198 C7.16181434,16.1744566 7.3306415,16.0150057 7.64075826,15.9569622 L9.20174907,15.9569622 L9.20174907,15.2179071 L7.64075826,15.2179071 C7.30310394,15.2179071 7.13427678,15.0584545 7.13427678,14.7395495 C7.16181434,14.478852 7.3306415,14.3194827 7.64075826,14.2614392 L8.52740104,14.2614392 L7.175583,12.3044768 C7.03437337,12.1890508 6.97833788,12.0295992 7.0074763,11.8261191 C7.03533398,11.3337447 7.30270289,11.0583725 7.80958542,11 L7.80958549,11 C8.05677438,11.0259535 8.28418673,11.150835 8.44286745,11.3477615 L10.0038583,13.6522382 L11.5648491,11.3477615 C11.7052583,11.1454366 11.9162713,11.0295152 12.1978909,11 C12.6762745,11.0583725 12.9436434,11.3337447 13,11.8261191 C13,12.0291862 12.943324,12.1889685 12.8318933,12.3044768 L11.4810359,14.2609445 L12.3676786,14.2609445 C12.648657,14.319317 12.8174842,14.478687 12.8741601,14.7390548 C12.8458221,15.0584537 12.676995,15.2179071 12.3676786,15.2174124 L10.8066878,15.2174124 L10.8066878,15.9564675 L12.3676786,15.9564675 C12.648657,16.01484 12.8174842,16.1742926 12.8741601,16.4348251 C12.8458221,16.7541424 12.676995,16.9129354 12.3676786,16.9129354 L10.8066878,16.9129354 L10.8066878,18.2609442 C10.7783499,18.7541422 10.5109809,19.0004939 10.0045787,19 C9.46903879,19.000329 9.20142973,18.7541422 9.20174914,18.2614389 L9.20174907,18.2614388 Z" id="路径"></path>
                            <path d="M3.82352941,5 L16.1764706,5 C16.7254893,5 17,5.33333437 17,6 L17,6 C17,6.66666563 16.7254893,7 16.1764706,7 L3.82352941,7 C3.27451066,7 3,6.66666563 3,6 L3,6 C3,5.33333437 3.27451066,5 3.82352941,5 Z" id="路径"></path>
                            <path d="M19.1666667,7.13616068 L19.1666667,7.13616068 C19.6269036,7.1361607 20,6.76839427 20,6.31473211 L20,2.4642857 L20,2.4642857 C20,2.01062354 19.6269036,1.64285713 19.1666667,1.64285713 L14.1666667,1.64285713 L14.1666667,0.821428567 L14.1666667,0.821428567 C14.1666667,0.367766404 13.7935703,0 13.3333334,0 L13.3333333,0 C12.8730964,0 12.5,0.367766404 12.5,0.821428567 C12.5,0.821428567 12.5,0.821428567 12.5,0.821428567 L12.5,1.64285713 L7.5,1.64285713 L7.5,0.821428567 L7.5,0.821428567 C7.5,0.367766404 7.12690368,0 6.6666667,0 L6.66666667,0 C6.20642969,0 5.83333334,0.367766404 5.83333334,0.821428567 C5.83333334,0.821428567 5.83333334,0.821428567 5.83333334,0.821428567 L5.83333334,1.64285713 L0.833333365,1.64285713 L0.833333329,1.64285713 C0.373096352,1.64285715 0,2.01062354 0,2.4642857 C0,2.4642857 0,2.4642857 0,2.4642857 L0,22.1785713 L0,22.1785714 C0,22.6322336 0.373096352,23 0.833333329,23 L19.1666666,23 L19.1666665,23 C19.6269035,23 20,22.6322336 20,22.1785714 L20,16.6852679 L20,16.6852679 C20,16.2316057 19.6269035,15.8638393 19.1666665,15.8638393 C18.7064295,15.8638393 18.3333332,16.2316057 18.3333332,16.6852679 L18.3333332,21.3571429 L1.66666662,21.3571429 L1.66666662,3.28571439 L5.83333327,3.28571439 L5.83333327,4.10714296 L5.83333327,4.10714308 C5.83333333,4.56080525 6.20642962,4.92857165 6.66666659,4.92857165 L6.66666656,4.92857165 C7.12690353,4.92857167 7.5,4.56080525 7.5,4.10714308 L7.5,3.28571452 L12.5,3.28571452 L12.5,4.10714308 L12.5,4.10714321 C12.5,4.56080537 12.8730962,4.92857177 13.3333332,4.92857177 L13.3333332,4.92857177 C13.7935701,4.92857179 14.1666665,4.56080537 14.1666665,4.10714321 L14.1666665,3.28571464 L18.3333331,3.28571464 L18.3333331,6.31473248 L18.3333331,6.3147326 C18.3333332,6.76839477 18.7064295,7.13616117 19.1666665,7.13616117 L19.1666667,7.13616068 Z" id="路径"></path>
                            <path d="M19,15 C16.7945,15 15,13.2055 15,11 C15,8.7945 16.7945,7 19,7 C21.2055,7 23,8.7945 23,11 C23,13.2055 21.2055,15 19,15 Z M19,8.59999949 L18.9999999,8.59999949 C17.6745174,8.59999949 16.5999999,9.6745175 16.5999999,11 C16.5999999,12.3254825 17.6745174,13.4 18.9999999,13.4 C20.3254824,13.4 21.3999999,12.3254825 21.3999999,11 L21.3999999,10.999997 C21.3984828,9.67514199 20.3248524,8.60151449 18.9999974,8.59999949 L19,8.59999949 Z" id="形状"></path>
                            <path d="M20.6604402,11.3752772 L19.9058449,10.7638425 L19.9058449,9.92031565 L19.9058449,9.92031565 C19.9058449,9.4120397 19.4792067,9 18.9529227,9 L18.9529226,9 C18.4266386,9 18,9.4120397 18,9.92031565 C18,9.92031565 18,9.92031565 18,9.92031565 L18,11.1857497 L18,11.1857351 C17.9997373,11.4638712 18.130054,11.7271252 18.3543564,11.9015739 L18.3543564,11.9015739 C18.3787112,11.9264175 18.4045644,11.9498496 18.4317814,11.971748 L19.4353276,12.7853645 L19.4353276,12.7853645 C19.8388842,13.1116164 20.4398833,13.0601446 20.7776943,12.6703961 C20.7777148,12.6703724 20.7777354,12.6703487 20.7777559,12.670325 L20.7777559,12.670325 C21.115013,12.2812213 21.062529,11.7018941 20.6604274,11.3752683 L20.6604402,11.3752772 Z" id="路径"></path>
                        </g>
                    </g>
                </g>
            </g>
        </g>
    </g>
</svg>